<?xml version="1.0" standalone="no"?>
<!DOCTYPE svg PUBLIC "-//W3C//DTD SVG 20010904//EN"
 "http://www.w3.org/TR/2001/REC-SVG-20010904/DTD/svg10.dtd">
<svg version="1.0" xmlns="http://www.w3.org/2000/svg"
 width="3000.000000pt" height="3000.000000pt" viewBox="0 0 3000.000000 3000.000000"
 preserveAspectRatio="xMidYMid meet">
<metadata>
Created by potrace 1.14, written by Peter Selinger 2001-2017
</metadata>
<g transform="translate(0.000000,3000.000000) scale(0.100000,-0.100000)"
fill="#000000" stroke="none">
<path d="M20833 23405 c-160 -43 -291 -159 -436 -387 l-36 -56 -133 34 c-271
71 -449 64 -623 -23 -93 -47 -227 -146 -330 -245 l-104 -99 -58 16 c-88 25
-291 31 -385 12 -153 -32 -266 -94 -380 -209 -53 -53 -78 -89 -117 -170 -62
-128 -81 -204 -81 -337 l0 -104 -59 -91 c-62 -97 -128 -222 -193 -370 -22 -50
-41 -92 -42 -93 -1 -1 -48 -11 -104 -23 -233 -47 -368 -127 -504 -299 -72 -90
-95 -134 -124 -231 -24 -83 -10 -71 -172 -149 -299 -144 -550 -441 -624 -737
-18 -74 -22 -118 -22 -264 -1 -154 2 -183 21 -245 22 -67 60 -142 68 -133 2 2
-4 33 -14 68 -26 90 -35 338 -16 438 20 104 84 222 165 303 76 76 191 154 270
181 75 26 214 58 253 58 18 0 51 9 74 19 l41 19 52 -84 c49 -81 113 -144 147
-144 7 0 13 -2 13 -3 0 -2 -34 -80 -76 -173 -127 -283 -201 -476 -255 -662
-28 -97 -73 -251 -101 -342 -49 -164 -49 -166 -53 -330 -4 -152 4 -224 18
-174 11 39 27 133 42 249 21 169 75 356 175 610 26 66 53 138 60 160 55 172
230 529 392 799 322 536 492 744 964 1179 210 193 257 232 377 316 49 34 101
71 116 82 l28 20 56 -27 56 -28 -20 -28 c-36 -51 -88 -173 -110 -263 -21 -84
-22 -96 -11 -274 9 -164 14 -198 42 -285 l32 -99 -13 -94 c-10 -71 -10 -104
-1 -142 18 -77 69 -203 103 -255 48 -72 254 -220 439 -316 339 -175 480 -264
480 -305 0 -113 -155 -547 -276 -770 -75 -138 -112 -331 -131 -676 -5 -96 -3
-117 21 -200 44 -156 117 -289 200 -368 39 -38 47 -34 17 7 -33 48 -59 107
-101 231 -56 165 -63 218 -49 349 18 167 31 189 222 374 89 86 162 156 164
155 1 -1 -3 -69 -8 -152 -11 -165 0 -383 27 -514 39 -189 150 -434 271 -596
37 -49 139 -162 227 -251 143 -143 180 -173 331 -274 203 -135 289 -206 456
-377 235 -240 348 -461 380 -739 15 -136 4 -262 -37 -419 -84 -322 -113 -428
-138 -501 -36 -109 -56 -208 -56 -282 0 -54 4 -70 28 -103 15 -21 29 -39 32
-39 3 0 5 39 6 88 0 78 6 103 52 237 46 134 50 144 44 90 -15 -129 -8 -255 20
-350 14 -49 29 -110 33 -135 9 -68 81 -271 142 -403 l55 -117 -48 -58 c-70
-82 -117 -127 -164 -158 -48 -32 -46 -41 7 -24 49 16 114 52 182 103 42 31 55
37 62 26 20 -31 61 -178 66 -234 11 -122 -52 -312 -122 -374 -31 -27 -43 -31
-91 -31 -65 0 -64 -12 3 -42 43 -19 47 -19 88 -3 58 21 119 90 161 178 43 90
61 178 69 332 6 100 4 138 -14 227 l-21 108 83 99 c45 54 83 98 85 96 9 -8 54
-428 55 -522 1 -62 5 -109 10 -104 14 14 36 146 43 258 4 66 2 189 -6 297
l-13 184 47 70 c25 39 104 189 176 334 143 292 202 395 208 363 7 -34 24 -47
53 -41 27 5 27 4 22 -29 -7 -43 12 -54 60 -34 17 8 36 12 41 11 5 -2 68 24
140 57 96 43 176 71 293 100 157 40 167 41 330 41 98 0 163 -4 158 -9 -8 -7
-296 -104 -415 -139 -34 -10 -33 -10 25 -11 89 -1 188 17 493 89 96 23 191 9
397 -57 215 -68 396 -177 552 -331 60 -59 74 -79 110 -167 35 -86 44 -124 64
-275 48 -351 22 -520 -146 -975 -35 -93 -88 -222 -118 -285 -30 -63 -66 -153
-80 -200 -35 -113 -62 -154 -208 -305 -250 -258 -400 -373 -690 -526 -85 -45
-159 -85 -165 -90 -7 -5 -50 -22 -97 -38 -81 -28 -97 -30 -329 -36 -206 -7
-254 -5 -313 8 -280 64 -433 179 -508 382 -55 150 -80 246 -81 309 -1 53 -22
57 -42 9 -14 -31 -16 -61 -11 -173 12 -253 42 -316 252 -525 239 -238 356
-295 625 -303 193 -5 238 6 475 118 459 218 772 401 982 577 l51 43 7 -53 c4
-28 20 -103 36 -164 l29 -113 -60 -120 c-138 -275 -221 -523 -429 -1286 -57
-209 -70 -282 -81 -473 -27 -447 86 -822 336 -1117 30 -35 54 -66 54 -69 0 -7
-123 -148 -299 -344 -200 -224 -294 -359 -332 -481 -72 -233 -19 -456 148
-616 l54 -52 -88 -48 c-48 -26 -134 -76 -190 -111 -56 -35 -155 -92 -220 -126
-65 -35 -179 -104 -253 -154 -198 -133 -361 -219 -855 -451 -93 -44 -205 -94
-247 -112 -94 -39 -316 -174 -431 -263 -47 -36 -132 -96 -189 -135 -56 -38
-155 -107 -219 -154 -221 -161 -529 -323 -834 -438 -149 -56 -442 -133 -547
-145 -34 -3 -112 -13 -172 -21 -61 -8 -190 -19 -288 -25 l-179 -10 -122 31
c-161 41 -248 92 -379 221 l-98 96 0 52 c0 29 11 99 25 155 13 55 31 164 39
241 12 112 23 165 57 265 48 145 73 186 200 335 211 245 310 367 305 372 -14
14 -333 -300 -393 -388 -18 -25 -43 -72 -58 -104 -14 -32 -41 -80 -60 -106
-42 -59 -146 -264 -186 -368 -39 -102 -54 -187 -40 -237 18 -65 3 -51 -40 37
l-40 84 5 -57 c17 -171 204 -452 352 -531 29 -15 98 -43 155 -62 57 -19 129
-43 159 -54 107 -37 251 -45 490 -27 118 9 242 23 275 31 33 8 110 24 170 35
148 27 449 119 575 175 284 128 552 293 886 546 141 106 400 257 759 442 154
79 314 164 355 189 41 24 145 82 230 128 253 136 536 298 681 391 145 94 355
219 367 219 4 0 24 14 45 31 l37 30 29 -20 c54 -38 179 -92 241 -104 l61 -12
-8 -35 c-16 -71 -6 -250 20 -351 54 -207 213 -540 323 -676 19 -23 34 -46 34
-52 0 -5 -53 -49 -117 -97 -313 -233 -526 -439 -664 -642 -80 -117 -104 -181
-94 -248 11 -77 66 -83 86 -11 35 129 202 342 364 464 109 82 691 363 751 363
33 0 47 14 22 22 -6 2 18 20 53 40 107 59 243 145 330 209 44 33 82 59 83 57
1 -2 28 -55 59 -118 32 -63 86 -153 120 -200 l63 -85 -20 -55 c-15 -41 -21
-86 -23 -175 -2 -66 -6 -147 -9 -180 -4 -42 1 -87 15 -148 30 -125 31 -122
-41 -86 -132 67 -293 191 -323 249 -9 17 -20 30 -25 30 -19 0 -10 -37 24 -106
64 -128 187 -241 355 -328 82 -42 89 -48 112 -98 41 -89 140 -229 214 -303
128 -128 337 -247 519 -295 l81 -22 35 -66 c68 -128 198 -285 330 -399 161
-138 416 -290 568 -337 91 -28 240 -55 312 -57 l45 0 -55 -20 c-88 -31 -241
-59 -326 -59 -113 0 -304 20 -343 36 -86 36 -54 -44 36 -90 51 -25 162 -45
295 -52 193 -10 380 26 599 116 137 57 247 128 568 367 53 39 99 68 102 65 4
-4 44 -119 89 -257 45 -137 101 -306 126 -375 82 -230 114 -361 143 -596 27
-215 93 -556 141 -734 34 -125 57 -255 58 -325 0 -11 10 -70 22 -132 21 -109
21 -116 6 -345 -15 -240 -9 -628 14 -933 5 -72 9 -133 10 -137 0 -5 32 -8 70
-8 l70 0 0 308 c0 426 -16 621 -76 952 -24 135 -36 264 -54 585 -19 345 -79
676 -164 910 -30 83 -74 195 -99 250 -48 110 -83 202 -211 555 -46 129 -89
248 -95 264 -10 25 -10 28 6 21 49 -21 244 -77 330 -94 159 -32 270 -43 376
-35 l97 7 0 123 0 123 -85 -6 c-97 -7 -199 7 -330 43 -118 34 -225 76 -225 89
0 5 11 23 24 40 l24 30 78 -32 c120 -49 224 -67 240 -42 10 18 -16 35 -96 64
-85 30 -170 74 -170 87 0 5 17 40 39 76 152 263 267 568 325 870 36 185 47
304 47 513 0 203 -16 362 -62 644 l-30 180 47 40 c26 22 76 67 111 99 l63 59
0 849 c0 602 -3 855 -11 870 -22 40 -178 234 -241 298 -84 86 -245 224 -338
290 -90 63 -91 64 -63 56 37 -12 234 -125 283 -162 121 -93 320 -316 356 -399
12 -27 13 -21 14 73 l0 102 -77 98 c-79 98 -157 185 -290 322 l-73 75 63 50
c85 69 226 204 308 298 l69 77 0 473 -1 472 -40 -120 c-49 -147 -133 -321
-207 -429 -157 -230 -343 -450 -362 -429 -4 4 -24 59 -45 121 l-37 113 130
128 c190 189 338 375 465 587 20 33 50 77 67 98 l30 39 0 1571 c0 1366 -2
1574 -15 1593 -8 11 -46 83 -84 159 -44 87 -108 192 -171 279 -56 77 -120 176
-142 219 l-40 80 -15 -35 c-16 -36 -38 -98 -79 -218 -28 -82 -43 -214 -44
-368 0 -103 -5 -133 -21 -133 -22 0 -26 59 -19 280 12 343 37 512 121 825 29
110 32 136 36 310 l5 190 -47 189 c-25 103 -44 191 -41 193 3 3 22 -29 42 -70
21 -42 41 -74 45 -71 13 8 25 -25 62 -166 l35 -135 -5 -205 -5 -205 42 70 c84
138 186 392 264 657 30 103 60 196 66 207 7 13 10 371 10 1116 0 935 -2 1101
-14 1123 -8 15 -35 72 -60 126 -26 55 -59 120 -74 145 -26 43 -29 60 -45 246
-18 219 -37 304 -107 490 -89 236 -131 310 -295 521 -74 95 -119 162 -126 188
-31 113 -132 259 -231 332 -51 37 -70 60 -112 137 -102 184 -209 321 -346 442
-25 22 -79 88 -120 145 -91 128 -330 370 -449 454 -46 33 -130 88 -187 122
-94 56 -114 73 -213 186 -147 169 -265 260 -468 362 -101 50 -470 200 -518
210 -16 4 -77 41 -135 82 -349 251 -401 274 -833 369 -247 54 -298 72 -507
174 -217 107 -426 171 -660 202 -102 14 -553 6 -651 -11 -63 -11 -69 -10 -140
18 -277 110 -509 152 -842 152 -273 0 -478 -34 -735 -120 l-93 -31 -177 74
c-404 171 -513 210 -697 252 -125 28 -249 32 -332 10z m129 -239 c102 -38 203
-90 668 -344 85 -47 229 -128 320 -182 208 -123 364 -201 555 -278 156 -62
408 -146 533 -178 76 -19 94 -34 39 -34 -81 0 -746 212 -1001 319 -84 34 -102
39 -113 28 -12 -11 3 -24 89 -75 107 -63 212 -109 334 -146 79 -23 95 -43 33
-38 -46 3 -366 113 -501 173 -51 22 -111 42 -133 43 -43 3 -131 55 -206 123
-39 36 -484 293 -506 293 -7 0 -13 4 -13 9 0 27 248 -69 498 -192 113 -56 210
-104 215 -105 4 -2 -23 26 -60 63 -37 37 -129 108 -203 158 -161 108 -497 315
-569 351 -28 15 -51 29 -51 31 0 8 6 6 72 -19z m2138 -72 c87 -29 288 -126
319 -155 46 -43 -10 -40 -99 6 -30 15 -33 15 -44 -1 -18 -23 -46 -15 -152 46
-112 65 -144 88 -144 104 0 7 -10 18 -22 25 -39 20 56 4 142 -25z m-390 -19
c23 -8 60 -15 81 -15 28 0 39 -4 39 -15 0 -32 -102 -13 -155 29 -25 20 -18 20
35 1z m770 -56 c41 -16 82 -29 91 -29 24 0 239 -75 317 -110 76 -35 73 -34 66
-15 -4 8 -3 15 0 15 4 0 82 -24 174 -54 92 -30 201 -65 242 -76 181 -53 602
-269 617 -317 5 -15 -173 32 -322 85 -216 77 -223 67 -14 -18 79 -31 145 -63
147 -70 7 -20 -97 -7 -198 25 -111 35 -395 155 -490 208 l-75 41 31 -39 c44
-56 56 -82 44 -90 -6 -4 -16 -2 -23 3 -7 5 -51 30 -99 55 -47 25 -139 83 -205
129 -65 47 -176 115 -248 153 -154 80 -225 123 -225 137 0 16 87 -1 170 -33z
m-500 12 c19 -6 54 -15 78 -21 27 -7 42 -16 42 -26 0 -20 -53 -12 -117 18 -68
32 -70 46 -3 29z m-3131 -169 c33 -24 37 -40 9 -35 -39 7 -209 -35 -284 -71
-96 -46 -146 -121 -184 -278 -24 -99 -25 -177 -5 -244 18 -61 18 -64 0 -64 -8
0 -19 17 -26 43 -6 23 -18 62 -25 87 -34 112 -36 166 -10 245 4 11 -3 2 -15
-19 -37 -68 -61 -148 -67 -230 -5 -50 -12 -81 -19 -84 -10 -3 -13 15 -13 66 0
79 34 210 80 310 58 125 223 254 360 281 30 6 64 13 75 15 35 8 99 -4 124 -22z
m794 -78 c-15 -32 -18 -69 -18 -219 0 -125 4 -194 14 -225 l14 -45 27 85 c14
47 37 105 50 130 26 51 82 132 87 126 2 -2 -12 -34 -32 -72 -54 -107 -77 -209
-79 -348 -1 -127 -4 -134 -50 -122 -34 8 -57 66 -62 150 -15 280 -16 319 -5
397 11 77 54 199 66 187 3 -3 -3 -22 -12 -44z m4313 5 c40 -17 126 -65 191
-108 65 -43 138 -90 163 -106 100 -62 239 -171 240 -187 0 -32 -46 -33 -123
-3 -40 15 -101 38 -137 51 -141 49 -307 126 -414 193 -108 68 -130 77 -360
148 -32 10 -58 22 -57 28 2 13 57 7 101 -11 19 -8 116 -35 215 -60 99 -25 189
-47 200 -50 27 -7 -42 56 -120 108 l-60 40 44 -6 c24 -4 77 -20 117 -37z
m-2371 -114 c77 -31 200 -84 274 -117 86 -39 180 -72 265 -93 72 -18 131 -37
131 -42 0 -16 -46 -14 -122 7 -159 45 -388 100 -413 100 -58 0 -303 95 -392
153 -100 64 -119 99 -30 56 98 -47 111 -44 35 11 -40 28 -73 55 -73 60 0 5 42
-11 93 -34 50 -24 155 -69 232 -101z m-2874 59 c72 -21 145 -62 257 -146 90
-68 93 -72 138 -166 39 -81 47 -108 50 -164 3 -82 -7 -86 -61 -27 -42 47 -60
84 -70 149 -15 92 -57 143 -200 245 -85 61 -165 105 -189 105 -8 0 -18 5 -21
10 -9 15 34 12 96 -6z m5817 -147 c3 -12 -3 -17 -21 -17 -32 0 -56 26 -30 33
30 8 48 3 51 -16z m-4002 -40 c55 -30 99 -60 99 -68 0 -24 -35 -10 -122 47
-136 90 -125 100 23 21z m-142 -16 c142 -75 283 -158 291 -172 22 -35 -51 -10
-155 53 -107 65 -260 167 -260 173 0 10 17 3 124 -54z m4348 -31 c1 -9 -1 -17
-7 -18 -5 -1 -11 10 -13 25 -4 29 13 23 20 -7z m134 -2 c54 -65 72 -153 31
-153 -15 0 -25 18 -44 80 -14 44 -30 86 -35 93 -8 8 -6 12 5 12 8 0 28 -15 43
-32z m-5616 -140 c87 -183 109 -243 92 -260 -19 -19 -35 4 -72 102 -38 99
-100 280 -100 292 0 24 18 -6 80 -134z m5772 131 c16 -9 19 -8 13 1 -10 16 48
6 121 -21 58 -22 206 -108 243 -142 27 -25 84 -144 75 -158 -9 -16 -24 -10
-35 15 -6 13 -25 30 -42 39 -18 8 -72 47 -122 87 -234 185 -251 196 -173 111
63 -68 75 -96 61 -144 -7 -25 -14 -32 -33 -32 -21 0 -26 6 -31 36 -3 20 -21
58 -41 85 -69 95 -90 134 -72 134 8 0 25 -5 36 -11z m-5050 -36 c-10 -16 -24
-43 -30 -62 -15 -43 -15 -158 -1 -200 9 -25 9 -35 0 -44 -10 -9 -17 -7 -32 12
-15 19 -19 39 -19 105 0 86 20 149 62 194 30 31 43 28 20 -5z m-1934 -27 c12
-12 -13 -26 -47 -26 -56 0 -206 -27 -281 -51 -132 -43 -268 -143 -358 -264
-43 -58 -44 -59 -37 -25 13 67 71 174 119 222 84 82 221 138 376 152 51 4 221
-2 228 -8z m5827 -16 c3 -5 -1 -10 -10 -10 -9 0 -13 5 -10 10 3 6 8 10 10 10
2 0 7 -4 10 -10z m-3710 -76 c17 -59 15 -70 -10 -61 -11 5 -15 21 -15 62 0 30
2 55 4 55 3 0 12 -25 21 -56z m-1984 -171 c22 -8 39 -20 39 -27 0 -6 33 -28
73 -49 39 -20 61 -28 47 -17 -14 11 -44 29 -68 40 -47 22 -51 43 -9 48 39 5
85 -24 157 -98 60 -61 143 -190 123 -190 -5 0 -26 21 -47 46 -31 37 -63 58
-164 108 -125 60 -127 61 -211 61 -78 0 -93 -4 -164 -37 -43 -21 -96 -51 -118
-69 -67 -53 -164 -205 -198 -311 -13 -40 -31 -51 -31 -18 0 69 105 294 190
407 37 50 126 107 190 123 45 12 142 3 191 -17z m7471 -30 c21 -19 23 -33 4
-33 -7 0 -21 11 -30 25 -19 29 -3 35 26 8z m-540 -57 c69 -20 126 -32 143 -28
19 3 30 0 37 -12 13 -23 63 -20 133 9 60 24 75 21 56 -12 -8 -16 -2 -20 52
-35 54 -14 64 -15 78 -2 8 8 33 14 55 14 l39 -1 -28 -24 c-25 -23 -26 -26 -10
-32 10 -3 45 -17 77 -29 33 -13 69 -24 81 -24 24 0 59 -32 48 -43 -13 -14 -53
-7 -64 11 -8 13 -20 17 -42 14 -55 -8 -289 20 -371 44 -69 21 -101 24 -233 24
-84 0 -153 -4 -153 -8 0 -5 10 -17 22 -28 22 -20 303 -335 446 -502 281 -327
617 -966 767 -1462 26 -85 62 -216 81 -290 64 -259 136 -661 120 -677 -14 -14
-25 19 -60 187 -21 96 -56 231 -78 300 -45 139 -129 362 -135 357 -2 -2 4 -24
12 -48 48 -135 101 -419 84 -450 -10 -20 -29 -17 -29 5 0 7 -24 86 -54 177
-37 115 -100 265 -211 504 -264 572 -345 718 -581 1045 -152 210 -311 457
-374 580 -11 22 -11 23 3 10 8 -8 127 -159 264 -335 137 -176 278 -356 314
-400 35 -44 97 -128 136 -187 81 -121 250 -454 338 -665 33 -78 61 -141 62
-139 14 13 -201 500 -321 731 -184 352 -288 505 -690 1020 -43 55 -105 139
-137 187 -67 99 -41 88 -264 108 -81 8 -128 8 -146 1 -15 -5 -84 -19 -154 -31
-141 -24 -224 -23 -254 4 -15 14 -26 15 -63 7 -24 -6 -115 -15 -201 -21 -137
-10 -165 -9 -223 6 -62 15 -72 15 -151 0 -91 -19 -123 -15 -123 14 0 15 10 20
53 24 28 3 96 10 149 16 106 11 427 12 498 2 35 -5 49 -3 62 10 27 27 224 40
363 24 69 -8 71 -8 170 38 96 44 103 46 196 46 80 0 115 -6 211 -34z m-6553
-42 c20 -26 36 -83 29 -104 -2 -6 -20 15 -41 47 -35 53 -41 83 -18 83 5 0 19
-12 30 -26z m7566 -64 c81 -36 257 -152 284 -187 17 -20 22 -38 20 -71 -3 -44
-2 -45 43 -68 44 -23 69 -44 51 -44 -13 0 -239 65 -294 85 -58 20 -119 70
-119 97 0 19 4 20 56 15 35 -4 75 -17 110 -36 29 -17 54 -28 54 -24 0 35 -187
198 -277 241 -18 9 -33 19 -33 23 0 11 37 0 105 -31z m-2774 -81 c119 -75 239
-169 239 -189 0 -4 -24 5 -52 20 -61 33 -282 130 -296 130 -5 0 -25 11 -44 23
-25 18 -40 22 -56 16 -12 -5 -22 -11 -22 -14 0 -2 26 -18 58 -34 199 -101 651
-405 631 -425 -3 -3 -104 46 -226 108 -121 63 -242 123 -269 135 -95 39 -230
88 -279 101 -54 14 -120 44 -129 59 -6 9 -242 9 -251 -1 -3 -2 41 -26 98 -53
56 -27 134 -66 172 -88 128 -73 221 -151 115 -97 -67 34 -347 139 -419 157
-88 21 -119 38 -127 68 -7 30 -1 40 39 60 108 56 351 98 541 94 53 -1 100 1
103 5 16 16 55 0 174 -75z m-6054 -72 c-34 -52 -123 -219 -221 -414 -120 -241
-196 -361 -292 -463 -78 -82 -159 -150 -180 -150 -27 0 -14 16 49 62 85 62
155 139 220 239 68 104 86 141 153 302 61 147 157 314 227 393 51 56 70 70 44
31z m5123 3 c-19 -5 -89 -13 -154 -19 -65 -6 -121 -13 -124 -15 -2 -3 58 -35
134 -71 151 -73 294 -154 294 -167 0 -5 -17 0 -37 11 -77 38 -347 132 -408
140 -75 11 -116 31 -134 64 -25 47 -9 61 67 55 37 -3 108 -2 157 2 131 10 250
10 205 0z m-3970 -12 c0 -7 -33 -44 -74 -83 -56 -54 -81 -87 -108 -145 -50
-106 -57 -137 -64 -295 -8 -166 3 -249 47 -366 37 -99 78 -157 213 -302 56
-59 103 -113 105 -119 6 -18 -72 45 -185 148 -88 81 -105 103 -141 176 -147
302 -159 487 -46 711 48 97 85 150 157 225 55 57 96 79 96 50z m70 -36 c0 -5
-33 -57 -72 -116 -111 -163 -138 -218 -150 -297 -14 -93 -32 -91 -25 4 16 201
45 286 126 367 41 41 56 50 86 50 19 0 35 -4 35 -8z m5848 -69 c228 -178 670
-599 886 -843 260 -295 491 -627 660 -951 130 -251 276 -592 276 -647 0 -32
-27 0 -70 84 -184 360 -521 892 -757 1196 -162 209 -385 467 -593 688 -257
273 -501 540 -494 540 3 0 45 -30 92 -67z m-2556 49 c2 -4 37 -23 78 -41 139
-63 428 -211 451 -232 27 -23 27 -23 -66 13 -39 15 -164 64 -280 108 -115 44
-225 87 -242 95 -32 14 -93 11 -93 -5 0 -4 21 -15 48 -25 96 -36 673 -276 808
-337 256 -114 658 -327 621 -328 -4 0 -43 18 -86 40 -301 151 -1529 610 -1632
610 -52 0 -39 -17 39 -50 448 -187 974 -447 1088 -538 36 -29 34 -28 -106 40
-234 114 -1123 479 -1136 466 -2 -2 61 -32 139 -67 252 -113 627 -312 627
-333 0 -5 -39 12 -87 36 -49 24 -272 117 -496 206 -225 90 -421 173 -437 186
-36 31 -42 30 -108 -8 l-56 -32 30 -13 c16 -7 83 -35 148 -63 148 -63 419
-201 509 -260 70 -46 91 -73 35 -44 -25 13 -324 122 -493 179 -11 4 6 -10 38
-30 32 -21 56 -39 54 -41 -2 -2 -44 13 -93 35 -49 21 -183 71 -299 111 -240
83 -242 84 -250 108 -8 27 -131 52 -258 53 -139 1 -202 10 -202 29 0 10 8 14
25 12 14 -2 75 -3 137 -2 102 0 117 3 176 30 65 31 66 31 354 57 60 5 84 2
139 -17 73 -24 86 -23 191 14 44 16 109 29 170 35 125 11 510 13 515 3z m4188
-217 c85 -112 230 -342 265 -421 193 -431 268 -729 350 -1384 43 -341 61 -830
31 -830 -11 0 -15 31 -20 148 -15 340 -50 674 -76 721 -4 7 -10 -96 -12 -230
-6 -234 -10 -279 -29 -279 -10 0 -14 25 -34 230 -60 623 -70 673 -220 1120
-119 351 -217 661 -211 667 2 2 20 -24 40 -59 20 -35 36 -59 36 -55 0 10 -53
115 -105 207 -72 126 -195 360 -195 368 1 12 109 -109 180 -203z m-1884 114
c201 -146 526 -430 759 -663 144 -145 391 -423 454 -512 63 -89 -10 -27 -242
204 -138 138 -308 299 -377 359 -212 183 -728 683 -705 683 7 0 57 -32 111
-71z m-4352 6 c124 -26 104 -43 -44 -36 -60 3 -82 14 -73 37 7 18 30 17 117
-1z m-124 -66 c28 -17 49 -33 46 -36 -5 -6 -103 44 -111 57 -11 19 14 10 65
-21z m242 -20 c54 -27 101 -60 95 -66 -7 -6 -82 14 -144 39 -35 13 -53 26 -53
37 0 36 15 34 102 -10z m374 -59 c82 -41 174 -113 162 -125 -20 -21 -257 77
-281 116 -14 22 -2 49 22 49 10 0 54 -18 97 -40z m2942 -174 c152 -62 297
-132 442 -211 69 -37 196 -106 282 -151 222 -117 462 -284 713 -495 125 -105
402 -321 483 -377 98 -68 190 -142 196 -158 7 -19 -10 -27 -33 -14 -32 16
-147 106 -254 197 -116 98 -299 223 -557 378 -192 116 -409 254 -615 391 -66
44 -176 113 -245 154 -69 40 -190 114 -270 165 -80 50 -171 106 -202 124 -53
30 -67 41 -52 41 3 0 53 -20 112 -44z m3671 -135 c58 -148 92 -257 161 -516
67 -251 80 -360 80 -654 0 -309 -19 -504 -71 -715 -39 -158 -128 -444 -156
-499 -18 -37 -34 -26 -22 16 18 63 78 374 100 522 21 137 23 188 23 585 1 480
-5 543 -75 860 -17 74 -48 223 -70 330 -22 107 -42 204 -45 215 -5 20 -5 20
10 1 9 -11 38 -76 65 -145z m-8149 44 c117 -134 286 -391 358 -544 58 -124
115 -299 140 -431 26 -132 30 -160 26 -160 -2 0 -29 49 -59 110 -73 145 -175
265 -398 464 -100 89 -189 201 -212 265 -19 56 -19 133 1 202 18 60 72 162 84
157 4 -2 31 -30 60 -63z m-2171 -98 c-109 -81 -185 -147 -210 -183 -21 -32
-34 -43 -42 -35 -13 13 79 128 138 170 46 33 107 62 114 55 2 -2 2 -5 0 -7z
m220 -39 c-60 -87 -141 -177 -205 -228 -71 -56 -270 -167 -281 -156 -18 18
104 214 160 258 94 73 264 156 325 157 l23 1 -22 -32z m7717 -44 c103 -74 208
-162 434 -364 335 -300 421 -389 621 -650 134 -175 409 -591 409 -619 0 -25
-18 -7 -75 75 -107 155 -175 241 -259 331 -45 48 -144 160 -220 248 -76 88
-335 357 -575 598 -240 240 -431 437 -425 437 7 0 47 -25 90 -56z m-2886 -72
c173 -66 200 -78 200 -93 0 -6 -7 -6 -20 1 -11 6 -78 29 -148 52 -191 61 -232
77 -232 95 0 21 14 17 200 -55z m519 -117 c42 -25 94 -62 116 -81 l40 -35 -39
6 c-100 16 -238 91 -244 133 -5 36 41 28 127 -23z m5161 -135 c24 -136 25
-160 5 -160 -17 0 -21 14 -35 142 -21 198 -5 208 30 18z m-8973 -202 c119 -96
156 -118 418 -245 134 -64 144 -72 241 -168 69 -69 109 -118 128 -158 16 -32
27 -60 24 -62 -2 -2 -33 21 -68 52 -121 105 -317 214 -518 288 -125 45 -242
121 -294 190 -44 57 -78 156 -78 223 l0 45 39 -55 c22 -30 70 -79 108 -110z
m3273 -38 c380 -132 454 -159 840 -303 197 -74 475 -187 595 -242 44 -20 165
-66 269 -101 320 -110 436 -160 886 -385 239 -120 561 -276 715 -347 285 -131
643 -324 960 -517 119 -72 121 -74 102 -93 -14 -13 -23 -10 -89 28 -76 45
-185 105 -473 257 -93 49 -195 104 -225 120 -164 92 -674 306 -755 317 -64 8
-57 4 155 -89 229 -101 360 -165 360 -176 0 -25 -41 -17 -172 34 -142 55 -326
115 -738 242 -391 120 -524 165 -640 216 -63 27 -218 86 -345 131 -270 94
-325 116 -525 204 -150 67 -192 95 -102 69 26 -7 119 -32 207 -55 88 -23 270
-72 405 -110 135 -38 297 -80 360 -94 63 -14 140 -33 170 -41 105 -29 83 -9
-65 59 -83 39 -321 156 -530 261 -409 206 -704 335 -1155 505 -409 154 -624
240 -635 252 -7 8 -4 9 10 3 11 -4 198 -69 415 -145z m-5170 134 c0 -3 -66
-37 -147 -75 -101 -48 -188 -81 -278 -106 -143 -38 -185 -59 -276 -134 -33
-28 -63 -49 -65 -46 -10 9 57 76 122 122 85 61 144 87 294 130 69 19 172 53
230 75 109 41 120 44 120 34z m3018 -46 c11 -29 27 -78 37 -107 10 -30 67
-149 127 -263 125 -239 159 -315 183 -419 23 -98 32 -352 15 -473 -25 -188
-74 -406 -92 -406 -5 0 -7 4 -4 9 3 5 18 98 32 207 44 326 34 481 -42 670 -20
49 -37 90 -38 91 -1 1 -2 -113 -2 -255 0 -240 -2 -270 -32 -457 -18 -110 -43
-256 -57 -325 -64 -327 -75 -413 -75 -569 0 -207 36 -372 118 -538 63 -129
257 -350 375 -428 52 -34 74 -65 46 -65 -49 0 -205 142 -330 300 -179 228
-205 271 -282 480 -108 290 -111 429 -17 720 27 85 69 229 92 319 24 94 49
172 59 182 34 34 61 215 66 449 3 132 1 229 -5 250 -6 19 -38 102 -71 183 -97
238 -166 497 -132 497 5 0 18 -24 29 -52z m-2788 -53 c0 -14 -233 -445 -240
-445 -22 0 -76 132 -86 213 l-5 42 88 42 c48 24 120 67 158 97 67 52 85 62 85
51z m10659 -255 c2 -417 -66 -879 -165 -1117 -41 -102 -144 -293 -156 -293
-12 0 -11 5 22 120 17 58 49 179 71 270 22 91 58 224 79 295 39 131 69 267 89
405 9 62 39 388 42 448 0 14 2 13 9 -3 5 -11 9 -67 9 -125z m266 -71 c-29
-265 -89 -581 -138 -719 -76 -215 -204 -490 -228 -490 -16 0 -10 29 16 81 68
133 165 467 250 860 38 175 93 398 102 412 13 21 12 -9 -2 -144z m355 -73 c0
-12 -32 -155 -42 -188 -11 -39 -38 -52 -38 -20 0 41 57 212 71 212 5 0 9 -2 9
-4z m197 -208 c32 -31 44 -68 22 -68 -32 0 -97 69 -84 90 11 17 28 11 62 -22z
m148 -247 c10 -32 81 -96 144 -129 101 -55 156 -139 180 -275 7 -38 21 -91 31
-118 44 -110 81 -259 91 -359 11 -110 3 -284 -12 -275 -14 9 -28 74 -39 181
-8 73 -24 142 -65 264 -29 91 -56 177 -59 192 -4 15 -26 51 -51 80 -58 69
-125 180 -141 236 -8 24 -40 77 -73 118 -59 74 -68 104 -31 104 10 0 21 -9 25
-19z m-5685 -141 c158 -33 265 -62 557 -151 106 -32 281 -81 389 -109 108 -28
301 -87 428 -130 127 -43 270 -90 318 -105 48 -14 90 -31 94 -36 17 -28 -21
-26 -149 6 -76 18 -218 47 -316 64 -230 40 -329 66 -553 147 -339 122 -852
296 -963 325 l-110 29 80 -4 c44 -3 146 -19 225 -36z m4949 -229 c-30 -58 -58
-104 -64 -101 -5 3 -9 10 -9 16 3 24 118 218 122 205 2 -7 -20 -61 -49 -120z
m-7525 -30 c40 -55 123 -125 203 -170 100 -57 228 -147 257 -181 31 -38 42
-88 27 -132 -58 -178 -65 -279 -24 -390 23 -64 37 -83 107 -154 90 -89 180
-147 301 -194 130 -50 155 -62 155 -77 0 -19 -35 -16 -124 11 -90 28 -162 70
-299 174 -112 86 -176 153 -208 220 -34 69 -38 190 -10 327 13 62 20 119 16
136 -10 44 -115 147 -224 219 -52 35 -113 82 -135 105 -42 42 -88 119 -100
165 l-7 25 18 -22 c10 -12 31 -40 47 -62z m-764 -128 c-7 -70 -15 -141 -19
-156 -4 -18 -51 -73 -126 -147 -66 -66 -121 -118 -122 -116 -2 2 24 69 57 150
38 91 78 170 106 208 25 34 60 92 77 129 18 37 34 66 36 64 1 -2 -2 -61 -9
-132z m7513 -452 c102 -35 207 -87 207 -104 0 -9 -24 -11 -97 -7 -54 3 -103 3
-108 -1 -6 -4 -26 -9 -45 -11 -44 -5 -31 -10 95 -37 70 -15 116 -31 155 -55
81 -50 78 -60 -14 -53 -42 3 -76 4 -76 2 0 -2 17 -14 38 -26 140 -84 252 -200
252 -259 0 -21 -2 -21 -39 11 -64 56 -213 145 -262 157 -85 21 -357 -28 -484
-88 -114 -53 -179 -115 -227 -217 -23 -50 -45 -83 -54 -83 -22 0 -9 62 27 129
16 30 27 56 25 58 -7 7 -42 -60 -82 -154 -21 -51 -42 -93 -47 -93 -6 0 -6 32
-2 76 7 82 -4 94 -26 27 -8 -24 -9 -66 -5 -129 6 -78 5 -94 -7 -94 -16 0 -67
47 -67 62 0 5 -16 41 -36 81 -35 69 -37 76 -37 182 -1 115 9 165 48 250 67
146 80 170 106 200 33 38 159 125 208 145 18 7 54 13 80 13 25 -1 80 9 121 22
41 13 91 26 110 28 65 8 161 -5 243 -32z m-6921 -211 c7 -173 53 -297 179
-485 63 -94 149 -172 246 -223 82 -43 306 -123 446 -161 170 -46 306 -136 357
-237 43 -87 38 -256 -8 -272 -10 -3 -9 3 3 22 15 22 17 41 12 106 -9 137 -52
196 -192 266 -78 38 -171 59 -341 75 -159 14 -226 37 -321 108 -94 69 -148
127 -209 222 -50 76 -142 264 -167 340 -28 84 -49 230 -42 294 13 122 31 95
37 -55z m2793 -25 c61 -4 187 -12 280 -20 440 -36 483 -38 730 -31 231 6 275
4 580 -24 463 -42 780 -83 792 -103 4 -6 -6 -8 -28 -4 -19 3 -142 9 -274 12
-132 3 -280 7 -330 9 -89 4 -90 4 -27 -6 34 -5 60 -13 57 -17 -2 -5 23 -11 56
-14 65 -7 99 -21 99 -40 0 -20 -1111 -30 -1435 -13 -105 6 -151 12 -135 17 32
10 483 48 674 56 112 5 149 10 153 20 8 20 6 20 -82 32 -103 14 -1285 121
-1342 121 -2 0 -3 5 -3 11 0 8 20 9 63 5 34 -3 112 -8 172 -11z m6137 -152
c56 -58 141 -242 107 -231 -22 7 -111 137 -118 171 -5 21 -16 36 -34 45 -25
12 -36 40 -20 55 11 12 18 8 65 -40z m-1533 -30 c28 -38 66 -99 86 -137 31
-60 35 -77 35 -142 0 -59 -3 -74 -15 -74 -10 0 -15 10 -15 33 0 19 -8 58 -19
88 -20 59 -116 258 -132 274 -12 12 -12 25 0 25 5 0 32 -30 60 -67z m-190
-227 c36 -29 118 -102 182 -162 63 -60 159 -149 212 -197 260 -237 513 -669
578 -987 15 -74 37 -131 99 -260 118 -246 211 -452 206 -457 -3 -4 -139 217
-210 342 l-17 30 6 -30 c4 -16 22 -115 41 -219 18 -103 36 -198 40 -210 4 -14
3 -18 -4 -11 -16 15 -60 141 -151 425 -44 140 -94 289 -110 330 -30 73 -30 74
-31 35 0 -34 15 -293 35 -616 3 -62 2 -75 -5 -49 -13 52 -37 244 -60 490 -29
298 -52 396 -130 540 -34 63 -89 167 -121 230 -32 63 -75 133 -94 154 l-36 40
40 -85 c82 -176 93 -234 126 -625 35 -429 116 -953 171 -1104 13 -35 21 -66
19 -69 -7 -6 -62 119 -90 205 -37 112 -80 296 -120 509 -47 253 -88 446 -92
441 -2 -2 7 -63 21 -135 30 -150 33 -211 12 -211 -21 0 -32 41 -65 241 -45
273 -107 440 -278 748 -92 166 -153 303 -168 381 l-6 35 28 -35 c15 -19 55
-64 87 -100 32 -36 77 -90 99 -120 53 -73 60 -80 48 -48 -39 104 -134 260
-221 363 -27 32 -50 68 -50 78 0 21 -5 24 71 -33 19 -13 -8 20 -58 74 -87 92
-109 126 -82 126 7 0 42 -24 78 -54z m-728 -44 l-21 -37 39 43 c21 23 41 42
44 42 9 0 -14 -72 -44 -138 -32 -72 -197 -323 -319 -487 -83 -111 -237 -341
-265 -396 -39 -74 11 -5 137 191 86 135 300 391 315 377 10 -11 -59 -224 -127
-388 -49 -117 -82 -218 -114 -345 -59 -236 -106 -467 -106 -526 0 -26 -4 -58
-10 -72 -11 -31 -46 -35 -55 -7 -10 33 77 468 120 596 4 11 -12 -14 -35 -55
-23 -41 -75 -124 -115 -185 -66 -101 -120 -194 -166 -285 -9 -19 -32 -90 -51
-157 -22 -81 -38 -123 -47 -123 -10 0 -12 8 -7 33 17 82 36 222 45 327 6 63
22 157 36 209 15 51 24 95 22 97 -6 7 -123 -245 -174 -373 l-46 -118 -1 -180
c-1 -216 19 -386 74 -636 55 -249 87 -426 100 -562 10 -106 9 -155 -4 -116
-22 66 -145 514 -185 669 -27 107 -59 215 -70 240 l-22 45 6 -50 c7 -55 30
-201 41 -252 10 -53 -14 -40 -41 21 -37 84 -47 156 -51 381 -3 185 -2 205 10
170 l13 -40 6 55 c4 30 8 109 11 175 3 66 16 181 30 255 14 74 28 151 31 170
l6 35 -17 -30 c-64 -112 -174 -417 -174 -484 0 -14 -5 -33 -11 -41 -20 -29 -2
189 24 290 30 118 117 349 170 455 40 81 195 344 250 423 37 56 181 235 265
332 88 101 496 507 500 497 2 -4 -6 -24 -17 -45z m449 -42 c25 -50 67 -203 77
-284 l7 -61 8 80 c4 44 5 98 2 120 -5 31 -3 37 6 28 37 -35 113 -481 130 -763
12 -203 12 -417 1 -425 -14 -8 -31 28 -33 72 -5 104 -16 -294 -17 -609 -1
-336 -5 -387 -28 -364 -3 3 -12 151 -19 328 -14 341 -25 445 -79 808 -31 213
-40 307 -65 715 -10 170 -17 395 -13 395 1 0 12 -18 23 -40z m2200 -46 c13
-32 13 -101 1 -109 -22 -13 -61 85 -47 120 9 24 36 18 46 -11z m-8463 -38
c114 -81 249 -131 431 -162 81 -13 172 -31 202 -40 166 -48 310 -169 425 -359
40 -65 40 -62 3 75 -11 41 -38 109 -59 151 -31 63 -54 92 -139 169 -55 51 -98
95 -95 98 8 8 144 -101 207 -165 50 -50 66 -78 126 -213 77 -173 116 -286 163
-470 36 -143 63 -209 120 -296 44 -68 135 -150 217 -196 57 -33 68 -58 26 -58
-50 0 -236 155 -335 278 l-35 44 -12 -139 c-12 -142 -45 -279 -122 -513 -59
-180 -242 -513 -333 -610 -19 -19 -46 -52 -62 -72 -15 -21 -33 -38 -39 -38
-25 0 -4 59 38 107 106 125 267 408 326 575 68 191 85 310 83 603 -2 329 -20
424 -118 629 -79 164 -184 270 -321 325 -49 19 -180 50 -325 76 -151 27 -308
104 -394 194 -48 50 -41 52 22 7z m5908 -164 c-18 -86 -44 -200 -58 -252 -14
-52 -28 -115 -32 -140 l-6 -45 20 35 c23 41 25 33 11 -75 -65 -517 -90 -777
-90 -948 0 -75 -3 -98 -12 -95 -16 6 -24 73 -34 278 -8 166 -8 167 -40 -30
-12 -77 -18 -201 -23 -470 -5 -315 -8 -365 -21 -365 -17 0 -19 24 -39 385 -7
118 -19 292 -29 385 -43 438 -12 655 153 1085 63 165 197 410 223 410 5 0 -5
-71 -23 -158z m104 -37 c-17 -177 -29 -288 -65 -575 -7 -63 -18 -198 -24 -298
-5 -101 -13 -188 -16 -194 -4 -6 -10 -6 -17 1 -8 8 -11 106 -9 329 3 351 19
515 72 728 26 104 65 212 74 203 2 -2 -5 -89 -15 -194z m-1554 -104 c-6 -5
-35 -16 -65 -26 -94 -30 -576 -213 -750 -285 -91 -37 -241 -89 -335 -115 -93
-26 -228 -69 -298 -96 -132 -51 -192 -69 -312 -93 -58 -11 -63 -14 -32 -15 79
-2 295 30 396 60 103 30 124 32 98 11 -20 -17 -197 -79 -263 -92 -32 -6 -129
-29 -215 -50 -86 -21 -194 -44 -240 -50 -115 -16 -448 -14 -594 4 -180 22
-285 39 -285 46 0 6 135 19 435 41 77 5 176 16 220 23 l80 14 -75 1 c-196 4
-600 53 -600 73 0 9 187 1 310 -13 145 -16 324 -11 430 11 52 11 158 27 235
35 158 16 369 60 525 110 58 19 149 46 203 60 55 15 277 87 495 160 219 74
449 148 512 164 127 33 139 35 125 22z m-4575 -280 c25 -19 73 -60 108 -90
l62 -55 -6 -50 c-4 -28 -9 -56 -13 -62 -3 -7 -49 48 -104 125 -54 75 -110 152
-125 171 l-27 35 30 -19 c17 -10 50 -35 75 -55z m369 -368 l65 -75 28 -157
c15 -86 28 -158 28 -161 0 -3 -10 11 -22 30 -12 19 -57 89 -100 156 l-78 121
0 81 c0 45 3 82 8 81 4 0 36 -34 71 -76z m3510 -117 c-2 -2 -33 -11 -69 -20
-35 -9 -125 -41 -200 -70 -153 -61 -201 -76 -247 -76 -41 0 -44 24 -5 44 15 8
90 31 167 51 77 21 169 46 205 56 56 15 161 26 149 15z m-3069 -127 c48 -105
28 -95 -26 12 -31 63 -40 88 -27 76 11 -10 35 -49 53 -88z m-52 -136 c24 -18
52 -33 63 -33 18 0 19 -9 19 -142 0 -79 -5 -172 -11 -208 -16 -99 -40 -202
-47 -196 -3 3 -17 34 -32 68 -14 35 -43 92 -64 128 l-38 65 16 95 c8 52 18
134 22 182 4 62 10 86 18 81 6 -4 30 -22 54 -40z m2292 28 c-35 -20 -440 -60
-647 -64 -117 -3 -213 -1 -213 3 0 11 65 20 152 20 73 0 317 20 473 39 95 11
254 13 235 2z m800 -199 c0 -17 -38 -43 -96 -66 -32 -13 -102 -44 -154 -69
-52 -24 -156 -66 -230 -92 -201 -70 -201 -70 -42 -67 84 1 131 -1 122 -6 -8
-5 -109 -33 -225 -61 -501 -124 -606 -157 -767 -237 -98 -49 -98 -49 -98 -30
0 25 87 89 256 186 49 27 82 50 74 50 -56 0 -223 -35 -314 -64 -104 -35 -188
-75 -325 -158 -35 -22 -65 -37 -68 -35 -11 12 147 116 269 178 61 31 412 147
590 195 48 13 165 32 260 43 96 12 198 28 228 37 110 33 288 103 385 153 96
48 135 61 135 43z m-260 -521 c0 -4 -48 -18 -107 -30 -60 -13 -169 -38 -243
-57 -176 -46 -194 -49 -186 -36 12 20 171 65 345 98 208 38 191 36 191 25z
m-5 -161 c-124 -45 -143 -49 -147 -35 -4 14 178 75 222 74 28 0 12 -8 -75 -39z
m2178 -290 c83 -444 201 -936 293 -1224 39 -122 174 -469 180 -463 2 2 -12 47
-32 101 -19 54 -33 101 -30 103 8 8 190 -245 307 -429 80 -126 137 -200 329
-428 25 -30 82 -98 125 -150 44 -52 134 -156 200 -230 161 -181 193 -220 258
-320 75 -116 127 -224 130 -267 2 -44 -17 -54 -31 -16 -18 52 -133 246 -182
307 -63 79 -134 147 -240 228 -47 36 -123 98 -170 138 -47 40 -94 80 -105 89
-42 34 147 -190 343 -406 80 -88 105 -133 54 -98 -22 16 -213 229 -401 449
-219 255 -496 673 -694 1046 -67 127 -207 449 -236 543 -23 75 -46 205 -56
312 -3 39 -17 149 -30 246 -23 163 -45 435 -45 539 1 62 14 35 33 -70z m-4578
-375 c-59 -295 -94 -425 -107 -401 -16 28 -21 208 -9 279 16 95 63 219 117
311 25 43 47 76 49 74 1 -1 -21 -120 -50 -263z m-326 -215 c19 -150 40 -238
82 -341 21 -52 39 -101 39 -109 0 -19 -45 -93 -109 -180 l-55 -75 -24 55 c-84
191 -118 370 -102 537 12 124 23 168 88 333 l57 145 6 -135 c4 -74 12 -178 18
-230z m5205 68 c3 -13 12 -61 21 -108 34 -178 218 -599 378 -865 63 -106 299
-446 401 -579 96 -124 94 -121 70 -108 -30 16 -177 173 -268 287 -103 128
-275 368 -326 456 -138 235 -339 840 -307 923 9 23 26 20 31 -6z m-1150 -48
c33 -73 108 -301 141 -427 41 -155 58 -302 53 -453 l-4 -135 17 55 c14 47 33
180 58 415 l6 60 15 -35 c10 -25 15 -96 18 -253 3 -194 1 -230 -18 -325 -51
-255 -142 -451 -325 -706 -30 -43 -55 -80 -55 -82 0 -16 123 103 182 176 91
113 205 339 246 490 l10 35 1 -40 c2 -104 -78 -331 -172 -485 -97 -159 -305
-394 -491 -554 -188 -162 -230 -211 -319 -368 -43 -76 -83 -140 -89 -144 -25
-16 15 226 62 366 106 323 207 549 320 715 245 362 350 544 394 684 42 131 59
253 52 366 -7 131 -16 177 -87 446 -32 124 -59 233 -59 242 0 33 18 16 44 -43z
m-149 -168 c75 -215 95 -432 40 -432 -13 0 -15 13 -14 78 2 58 -8 124 -38 265
-42 196 -37 230 12 89z m1635 -158 c0 -8 34 -82 76 -165 74 -146 211 -353 389
-589 198 -262 383 -598 462 -840 38 -117 62 -223 47 -208 -3 4 -21 43 -40 88
-58 144 -244 490 -367 684 -38 61 -130 209 -205 330 -74 122 -170 273 -212
336 -110 164 -180 311 -180 378 0 21 2 22 15 12 8 -7 15 -19 15 -26z m-1590
-406 c-16 -35 -50 -103 -77 -153 -60 -110 -103 -145 -256 -211 -114 -50 -260
-152 -315 -220 -30 -38 -52 -44 -52 -15 0 50 119 156 417 369 108 77 134 102
233 220 33 39 65 72 70 72 5 0 -4 -28 -20 -62z m3422 -253 c6 -34 12 -149 12
-261 l1 -201 30 86 c17 47 36 95 42 105 10 18 11 18 19 -5 4 -13 7 -96 7 -184
0 -141 -7 -209 -39 -415 -3 -25 5 -13 28 42 18 42 37 80 41 84 41 41 -105
-624 -148 -674 -20 -23 -25 -25 -39 -13 -10 8 -14 21 -11 30 6 16 65 271 65
281 0 3 -23 -47 -52 -110 -28 -63 -71 -151 -96 -195 -25 -44 -56 -99 -69 -122
-25 -44 -49 -55 -60 -27 -7 20 6 60 63 185 23 53 52 129 63 170 21 77 62 281
57 286 -1 2 -44 -77 -96 -175 -96 -184 -135 -246 -150 -237 -4 3 14 56 42 118
68 154 82 196 134 402 48 195 124 706 124 838 0 84 14 81 32 -8z m-2778 -425
c52 -406 54 -421 92 -570 20 -74 48 -191 64 -260 16 -69 46 -179 65 -245 20
-66 47 -185 61 -265 14 -80 35 -183 47 -230 31 -124 30 -397 -1 -560 -40 -205
-196 -648 -255 -725 -12 -15 -19 -17 -27 -9 -9 9 -4 48 20 160 51 245 69 412
81 754 11 313 4 630 -12 545 -4 -22 -24 -134 -44 -250 -61 -357 -83 -431 -116
-398 -11 11 11 216 35 331 34 159 45 437 25 620 -6 53 -28 180 -49 282 l-38
185 -2 290 c-4 414 0 674 9 650 5 -11 25 -149 45 -305z m-1415 -46 c-54 -98
-160 -266 -200 -316 -39 -50 -84 -138 -124 -243 -33 -89 -54 -127 -66 -119
-15 9 -3 100 22 171 10 31 19 65 19 76 0 21 31 97 86 212 40 85 154 208 234
253 30 17 56 30 58 28 2 -2 -11 -30 -29 -62z m4361 -833 c-9 -80 -29 -131 -51
-131 -5 0 -12 7 -15 15 -9 23 59 215 72 203 2 -2 -1 -42 -6 -87z m-4647 -168
c5 -105 5 -109 -21 -148 l-26 -40 -10 44 c-17 80 12 251 44 251 4 0 10 -48 13
-107z m4773 6 c-13 -94 -51 -158 -78 -131 -8 8 69 182 81 182 2 0 1 -23 -3
-51z m-4492 -381 c-15 -29 -79 -129 -143 -223 -64 -93 -151 -235 -193 -315
-175 -329 -318 -623 -365 -750 -85 -229 -173 -630 -173 -788 0 -64 -6 -92 -21
-92 -16 0 -9 181 11 325 12 77 36 208 55 290 19 83 43 193 54 245 24 116 72
252 143 402 72 151 348 608 412 683 29 33 94 113 146 178 52 65 96 114 98 109
2 -6 -9 -34 -24 -64z m166 -107 c0 -16 -7 -47 -15 -71 -34 -97 -49 -222 -49
-415 0 -163 3 -202 22 -279 43 -171 129 -328 253 -460 115 -124 339 -276 494
-338 73 -29 90 -32 190 -32 141 0 317 39 575 129 241 83 273 91 415 110 204
26 306 17 408 -35 54 -28 98 -70 152 -145 78 -110 117 -207 96 -242 -9 -15
-10 -13 -11 15 0 39 -27 95 -85 178 -82 115 -170 174 -294 195 -109 20 -346
-23 -551 -99 -58 -21 -140 -51 -183 -67 -43 -15 -76 -29 -73 -32 2 -2 86 12
185 32 202 40 351 59 396 49 24 -5 -15 -18 -185 -60 -118 -29 -270 -73 -337
-98 -67 -25 -126 -46 -131 -46 -4 0 -54 -18 -110 -40 -194 -75 -375 -91 -524
-44 -101 32 -177 71 -245 127 -28 23 -94 76 -146 119 -179 146 -330 330 -297
361 9 9 21 1 54 -38 62 -75 193 -202 245 -237 39 -27 34 -20 -34 48 -96 95
-158 184 -230 336 -86 183 -125 346 -125 527 0 198 28 357 90 505 33 80 50 95
50 47z m-270 -178 c-13 -37 -40 -108 -61 -157 -22 -49 -39 -93 -39 -98 0 -9
-8 -27 -80 -188 -85 -189 -130 -393 -145 -660 -7 -132 7 -330 30 -410 23 -77
96 -230 111 -230 15 0 140 -191 194 -297 68 -133 104 -245 50 -159 -12 20 -23
36 -25 36 -2 0 23 -55 54 -122 70 -146 109 -245 117 -290 4 -24 -8 -8 -43 57
-137 254 -242 436 -348 600 -73 114 -173 301 -190 355 -4 13 -16 36 -26 50
-35 48 -50 137 -56 335 -7 235 -1 259 140 580 62 140 329 676 335 671 2 -3 -6
-35 -18 -73z m3590 -153 c43 -85 73 -245 90 -491 11 -156 4 -260 -40 -561 -32
-219 -60 -313 -138 -462 -125 -238 -155 -277 -393 -503 -156 -149 -238 -211
-259 -198 -23 14 -6 37 70 96 101 78 191 182 240 280 21 42 70 123 107 180
238 361 309 526 358 839 35 224 1 694 -60 829 -28 61 -7 53 25 -9z m689 -1102
c-49 -97 -149 -236 -225 -310 -77 -75 -152 -133 -161 -125 -3 4 17 30 45 59
78 81 187 231 285 390 27 43 56 82 65 87 30 17 26 -32 -9 -101z m-4300 -438
c13 -30 39 -81 58 -113 19 -32 32 -61 29 -64 -3 -4 -7 -4 -9 -2 -6 7 -183 284
-190 295 -6 10 17 106 31 128 3 6 17 -35 32 -90 15 -54 37 -124 49 -154z
m-447 -15 c28 -72 36 -110 41 -191 12 -175 56 -350 131 -518 14 -32 26 -63 26
-69 0 -5 -25 -41 -56 -79 -64 -80 -59 -81 -105 36 -67 173 -104 437 -95 686 5
155 13 237 21 228 2 -2 19 -43 37 -93z m1924 -59 c3 -7 -7 -78 -22 -157 -35
-186 -74 -265 -239 -484 -123 -163 -146 -207 -126 -244 24 -43 61 -61 127 -61
74 0 154 27 282 95 90 48 208 89 287 100 71 10 327 80 409 113 76 30 120 72
98 94 -26 26 -235 7 -316 -27 -40 -17 3 31 51 57 64 35 123 49 201 50 56 0 68
-3 90 -25 20 -20 26 -38 29 -81 3 -53 2 -55 -41 -93 -24 -21 -70 -53 -102 -72
-33 -19 -88 -56 -124 -81 -158 -114 -255 -148 -429 -153 -90 -2 -102 0 -131
21 l-31 24 -117 -48 c-103 -42 -126 -48 -192 -48 -69 -1 -78 2 -120 32 -25 17
-56 49 -70 69 -22 32 -25 47 -24 122 0 72 5 99 33 168 30 76 41 90 178 234
194 203 216 233 248 329 26 77 40 95 51 66z m-994 -93 c-6 -104 25 -394 48
-455 10 -27 42 -85 70 -131 133 -209 256 -344 475 -520 251 -201 468 -416 501
-495 17 -42 17 -42 1 -42 -8 0 -61 53 -120 118 -173 192 -313 323 -467 436
-388 285 -508 409 -541 565 -18 81 -18 441 0 511 13 51 28 90 35 90 1 0 1 -35
-2 -77z m2114 -476 c65 -104 165 -301 217 -427 59 -142 71 -225 64 -442 -5
-166 -4 -194 12 -241 31 -89 81 -304 111 -477 l28 -165 2 155 c2 179 12 175
35 -13 26 -223 40 -450 40 -667 0 -189 -3 -226 -23 -304 -42 -168 -241 -616
-273 -616 -15 0 -10 38 20 144 32 110 52 205 77 366 9 58 30 157 46 220 81
308 101 438 83 546 l-9 49 -7 -62 c-11 -89 -35 -178 -69 -253 -47 -105 -110
-249 -150 -345 -71 -173 -143 -301 -161 -290 -15 10 -10 42 17 102 107 238
175 445 208 633 8 47 27 138 40 202 46 211 45 249 -10 601 -15 92 -29 167 -33
167 -3 0 -14 -37 -24 -82 -30 -135 -64 -223 -157 -413 -92 -188 -144 -263
-173 -252 -15 5 -11 18 27 94 47 94 71 181 112 417 29 166 62 310 106 456 27
88 32 121 31 200 -1 165 -12 199 -244 739 -41 95 -17 78 57 -42z m34 -497 c0
-67 -32 -328 -46 -371 -18 -55 -90 -130 -155 -158 -127 -57 -393 -42 -466 25
l-28 25 31 -6 c44 -9 320 58 392 94 31 16 86 50 121 77 85 64 112 120 119 251
3 69 8 93 18 93 9 0 14 -11 14 -30z m-1841 -139 c-16 -5 -99 10 -99 18 0 5 10
21 22 36 l21 27 33 -38 c18 -22 28 -41 23 -43z m808 -51 c48 -194 92 -247 287
-345 l134 -66 123 -9 c68 -5 143 -10 167 -10 23 0 42 -4 42 -9 0 -15 -98 -52
-177 -67 -41 -8 -114 -14 -162 -14 -110 0 -168 26 -259 116 -94 94 -168 267
-189 442 -9 82 10 61 34 -38z m2375 -232 c82 -154 127 -257 166 -378 17 -52
35 -108 41 -125 9 -28 9 -27 10 20 1 79 -18 221 -45 329 -14 54 -24 115 -22
135 l3 36 21 -40 c32 -58 71 -197 84 -292 6 -47 10 -187 8 -320 -2 -144 2
-282 10 -348 7 -60 15 -240 18 -400 5 -264 14 -412 30 -472 4 -13 2 -23 -3
-23 -12 0 -66 194 -92 330 -11 58 -29 193 -40 300 -70 655 -138 1030 -225
1249 -51 127 -49 121 -38 121 5 0 38 -55 74 -122z m-2924 -78 c0 -41 -3 -106
-7 -144 l-6 -68 -65 -20 c-36 -11 -86 -35 -113 -54 -26 -19 -50 -34 -53 -34
-12 0 -231 -114 -284 -148 -30 -19 -97 -62 -149 -94 l-93 -59 3 123 4 123 39
50 c21 28 43 49 48 47 6 -1 27 7 47 19 109 66 164 94 259 129 58 22 120 40
137 40 54 0 123 30 173 75 26 24 44 46 40 51 -18 17 -173 -16 -253 -55 -44
-22 -98 -46 -120 -56 -22 -9 -71 -38 -110 -64 -38 -27 -89 -58 -113 -70 l-43
-22 26 41 c14 23 41 78 59 123 l33 82 51 -3 c94 -6 346 41 447 84 39 16 44 5
43 -96z m3431 -50 c108 -208 158 -395 168 -625 9 -210 -21 -388 -88 -531 l-32
-69 -8 85 c-16 175 -31 279 -64 435 -33 160 -33 160 -28 370 5 199 -4 330 -33
455 l-6 25 21 -25 c11 -14 42 -68 70 -120z m-5168 -37 c-86 -103 -128 -163
-178 -251 -88 -155 -112 -224 -114 -317 0 -48 -2 -55 -10 -37 -30 76 -15 219
35 324 45 95 155 228 226 276 35 23 66 42 68 42 2 0 -10 -17 -27 -37z m326
-303 c-6 -63 -6 -129 1 -198 l11 -104 -66 -99 c-73 -109 -74 -110 -131 -44
-39 44 -46 70 -39 145 6 71 37 141 107 245 48 71 120 159 125 153 1 -2 -2 -46
-8 -98z m1363 -47 c-38 -185 -87 -348 -166 -546 -63 -160 -125 -300 -140 -316
-1 -1 -7 0 -12 3 -16 9 13 137 53 237 37 92 82 176 129 238 14 19 26 45 26 58
0 20 -5 23 -35 23 -50 0 -84 -20 -147 -88 -57 -62 -132 -196 -163 -292 l-18
-54 -48 54 c-55 61 -126 193 -157 290 -38 121 -40 110 41 175 39 31 98 70 130
86 72 37 314 187 322 199 4 6 21 10 38 10 18 0 61 11 97 23 36 13 66 20 68 16
2 -5 -6 -57 -18 -116z m471 -210 c87 -147 213 -400 268 -542 45 -115 51 -136
39 -145 -30 -22 -196 -75 -288 -92 -96 -17 -337 -31 -364 -21 -12 5 -5 28 38
119 108 228 194 491 227 694 6 41 15 74 20 74 5 0 32 -39 60 -87z m584 -158
c59 -118 91 -214 109 -326 5 -28 3 -38 -9 -43 -9 -3 -17 0 -20 7 -53 172 -136
380 -205 518 -17 32 -30 62 -30 66 1 4 21 -14 46 -42 27 -30 71 -102 109 -180z
m-2795 1 c17 -52 83 -131 140 -169 75 -49 66 -78 -11 -35 -73 41 -159 198
-158 288 l1 55 8 -51 c4 -28 13 -67 20 -88z m4480 -237 c-35 -374 -87 -570
-261 -969 -56 -129 -121 -291 -145 -360 -43 -124 -48 -128 -45 -40 2 97 51
281 112 421 103 238 244 623 264 719 4 19 15 64 25 100 10 36 24 109 31 163
17 138 32 110 19 -34z m-4003 54 c-3 -2 -16 1 -31 7 -26 10 -26 10 -10 36 l17
25 14 -32 c7 -18 12 -34 10 -36z m140 -216 c99 -137 340 -329 541 -431 l53
-27 -33 -42 c-69 -90 -318 -327 -435 -415 -67 -51 -124 -92 -127 -92 -18 0
-167 314 -223 470 -73 200 -104 404 -79 517 7 30 11 32 59 37 66 7 200 23 208
25 3 0 19 -18 36 -42z m1991 -434 c17 -96 32 -238 32 -301 l0 -52 -67 -43
c-94 -60 -167 -88 -243 -94 -128 -10 -204 36 -265 161 -31 62 -36 80 -33 129
l3 58 115 38 c63 22 178 66 255 100 186 82 179 79 186 75 3 -2 11 -34 17 -71z
m2025 -40 c3 -16 13 -87 23 -160 l18 -132 -45 -48 c-59 -64 -138 -137 -143
-132 -6 5 80 433 89 451 13 21 38 48 45 48 4 0 10 -12 13 -27z m-2870 -119
l104 -7 -5 -97 c-5 -111 7 -178 48 -260 58 -115 181 -219 333 -280 82 -33 261
-65 315 -56 36 5 36 6 20 -63 -14 -63 -22 -66 -178 -66 -193 1 -387 67 -537
181 -85 66 -186 171 -241 251 -47 69 -122 216 -122 238 0 24 132 177 147 171
7 -3 60 -8 116 -12z m2943 -491 c8 -55 -10 -124 -87 -333 -56 -151 -176 -401
-241 -500 l-42 -65 -7 40 c-13 66 -10 217 6 368 12 108 28 186 67 325 l52 182
60 0 c34 0 84 7 111 14 73 21 73 21 81 -31z m-1336 -156 c-100 -336 -298 -690
-498 -893 -105 -107 -314 -224 -448 -251 -66 -13 -82 -13 -151 1 -42 8 -108
31 -147 49 -81 39 -160 103 -136 110 8 2 46 11 83 20 86 21 171 55 244 98 75
45 246 210 308 297 50 70 50 71 135 97 262 83 430 236 575 525 37 73 38 74 47
47 7 -20 4 -46 -12 -100z m-1592 -290 c79 -58 207 -124 312 -161 92 -34 224
-66 268 -66 21 0 32 -5 32 -15 0 -8 -40 -56 -90 -108 -125 -131 -218 -176
-395 -193 l-70 -6 -44 58 c-105 143 -156 307 -175 562 l-4 62 50 -42 c27 -24
79 -65 116 -91z m1806 -354 l29 -143 -58 -71 c-167 -206 -402 -382 -590 -442
-59 -19 -187 -37 -253 -36 l-47 0 35 16 c237 109 315 159 431 275 132 132 272
316 376 493 21 35 40 61 43 57 3 -4 19 -71 34 -149z m1111 -254 c-20 -146 -58
-333 -87 -427 l-20 -66 -24 27 c-26 30 -90 137 -125 209 l-22 46 72 79 c40 43
104 120 143 171 39 51 72 91 75 89 2 -3 -3 -61 -12 -128z m-930 -365 c-22 -16
-172 -67 -184 -62 -5 2 30 37 78 79 l86 77 19 -41 c17 -39 17 -41 1 -53z m570
-162 c27 -30 77 -76 112 -104 62 -50 62 -51 45 -76 l-16 -25 -82 85 c-78 83
-184 227 -184 251 0 7 17 -8 38 -33 20 -25 59 -69 87 -98z m-393 -114 c34 -51
113 -144 175 -207 62 -63 113 -117 113 -120 -1 -13 -151 -113 -226 -150 -114
-57 -174 -72 -305 -78 -213 -10 -322 17 -566 141 -169 86 -261 143 -378 237
l-80 64 115 7 c192 11 333 52 522 150 l77 40 71 -18 c80 -19 219 -15 325 9 94
22 89 25 157 -75z"/>
<path d="M27130 19905 c0 -5 5 -17 10 -25 5 -8 10 -10 10 -5 0 6 -5 17 -10 25
-5 8 -10 11 -10 5z"/>
<path d="M28491 16824 c0 -11 3 -14 6 -6 3 7 2 16 -1 19 -3 4 -6 -2 -5 -13z"/>
<path d="M28502 16780 c0 -14 2 -19 5 -12 2 6 2 18 0 25 -3 6 -5 1 -5 -13z"/>
<path d="M27611 13705 c0 -5 6 -21 14 -35 8 -14 14 -20 14 -15 0 6 -6 21 -14
35 -8 14 -14 21 -14 15z"/>
<path d="M7889 21127 c-24 -19 -39 -52 -39 -89 l0 -34 113 -12 c61 -7 123 -14
137 -17 48 -10 -11 12 -85 32 -51 14 -71 24 -73 37 -4 16 1 17 50 11 143 -19
388 -94 663 -202 400 -157 767 -413 1083 -754 182 -195 286 -330 414 -534 17
-27 51 -56 102 -88 42 -25 76 -43 76 -39 0 18 -149 256 -244 389 -215 303
-421 510 -750 757 -153 115 -241 168 -481 291 -259 132 -440 188 -816 249
-113 19 -129 19 -150 3z"/>
<path d="M6865 21115 c-44 -6 -98 -17 -120 -23 -22 -6 -103 -27 -181 -46 -325
-81 -621 -200 -883 -355 -116 -69 -324 -221 -451 -330 -93 -80 -308 -304 -374
-391 -50 -64 -209 -302 -252 -375 l-28 -49 39 24 c118 71 146 93 176 137 18
26 56 75 85 108 29 33 94 109 144 168 90 106 272 276 418 391 186 147 614 386
837 469 166 62 326 112 415 131 362 75 340 72 340 54 0 -8 -31 -20 -73 -30
-373 -90 -725 -281 -1022 -555 -86 -79 -271 -276 -286 -306 -10 -17 -8 -17 28
-1 21 9 52 21 70 27 20 6 63 44 114 99 197 215 529 436 859 571 121 49 279
101 352 114 41 8 55 52 34 106 -29 76 -73 88 -241 62z"/>
<path d="M8091 20876 c2 -2 44 -20 92 -40 302 -124 624 -341 851 -571 69 -71
77 -76 157 -99 46 -13 85 -23 87 -22 7 8 -205 229 -294 308 -215 190 -363 286
-509 332 -147 47 -401 107 -384 92z"/>
<path d="M5655 20043 c-94 -22 -92 -20 -149 -112 -132 -213 -242 -489 -291
-731 -9 -45 -14 -84 -11 -87 3 -3 23 8 44 25 34 28 41 41 62 119 68 260 192
531 342 751 16 23 28 41 26 41 -2 -1 -12 -3 -23 -6z"/>
<path d="M9276 19978 c4 -7 27 -41 51 -76 24 -35 71 -113 104 -173 34 -60 66
-112 71 -115 12 -8 111 -34 115 -31 4 5 -95 205 -137 275 -34 58 -48 73 -78
83 -21 6 -59 20 -85 30 -32 13 -46 15 -41 7z"/>
<path d="M4540 19387 l-85 -62 -52 -121 c-46 -108 -149 -421 -141 -429 2 -2
40 31 86 73 l83 77 48 135 c27 74 59 158 71 185 63 141 89 205 82 204 -4 0
-45 -28 -92 -62z"/>
<path d="M9593 19372 c47 -167 47 -166 100 -195 28 -15 52 -25 55 -23 4 4 -44
186 -50 190 -2 1 -27 12 -57 24 -48 20 -53 20 -48 4z"/>
<path d="M10331 19234 c28 -58 67 -152 87 -209 37 -102 39 -106 115 -176 43
-39 80 -70 82 -68 2 2 -34 98 -80 214 -64 161 -90 215 -113 235 -83 71 -131
110 -136 110 -2 0 18 -48 45 -106z"/>
<path d="M9670 19057 c0 -7 7 -64 16 -127 12 -83 15 -164 12 -291 l-4 -176 34
-22 c19 -12 35 -21 37 -19 1 2 7 49 14 106 12 113 14 319 4 425 -5 62 -9 69
-34 83 -55 28 -79 34 -79 21z"/>
<path d="M5225 19035 c-21 -14 -42 -33 -46 -43 -16 -42 -21 -319 -9 -452 6
-74 13 -136 15 -138 2 -2 18 7 37 19 l34 22 -4 211 c-2 116 1 254 7 305 6 52
9 96 8 97 -1 1 -20 -8 -42 -21z"/>
<path d="M4293 18657 l-80 -82 -17 -155 c-9 -85 -18 -165 -20 -177 -2 -13 0
-23 4 -23 4 0 36 30 71 68 l65 67 13 95 c7 52 22 137 32 189 11 52 18 96 16
98 -2 1 -40 -34 -84 -80z"/>
<path d="M10537 18663 c13 -43 36 -127 49 -188 l25 -110 66 -67 c37 -37 68
-66 70 -64 6 5 -27 197 -47 275 -18 70 -23 79 -97 153 -42 43 -81 78 -84 78
-4 0 4 -35 18 -77z"/>
<path d="M7025 18434 c-388 -65 -611 -137 -940 -302 -176 -87 -420 -247 -551
-359 l-51 -43 -31 63 c-60 127 -162 433 -162 489 0 24 -7 23 -46 -7 l-32 -25
33 -128 c41 -157 80 -258 165 -427 61 -121 214 -365 228 -365 4 0 21 11 37 24
23 19 28 28 20 39 -5 8 -43 63 -83 122 -85 127 -91 105 63 228 366 294 826
498 1295 576 357 59 684 50 1073 -30 230 -46 593 -176 784 -279 159 -85 464
-299 526 -368 17 -18 17 -23 4 -49 -8 -15 -36 -56 -61 -90 l-45 -62 34 -27
c19 -14 38 -23 44 -20 13 8 120 159 164 232 74 122 166 329 201 452 20 68 36
132 36 143 0 16 -51 59 -71 59 -4 0 -16 -39 -28 -87 -31 -122 -167 -453 -187
-453 -3 0 -43 30 -90 67 -197 157 -333 243 -589 372 -296 149 -616 242 -960
281 -49 5 -200 9 -335 9 -230 -1 -257 -3 -445 -35z"/>
<path d="M16876 18259 c-9 -46 -7 -309 2 -309 9 0 31 243 27 299 -3 45 -21 51
-29 10z"/>
<path d="M4222 18135 l-62 -85 0 -167 c0 -140 7 -247 32 -482 3 -21 -9 -28
-142 -80 -80 -31 -185 -78 -233 -104 -127 -67 -266 -150 -271 -162 -2 -5 -16
-36 -30 -68 -15 -32 -21 -55 -14 -51 7 4 45 28 83 54 164 108 457 255 608 305
38 12 75 28 83 37 13 12 13 48 2 278 -9 211 -9 295 1 424 7 88 15 166 18 173
14 36 -20 4 -75 -72z"/>
<path d="M10644 18064 c15 -205 16 -315 7 -509 -12 -256 -10 -275 44 -291 126
-37 401 -182 585 -308 52 -35 96 -63 97 -62 4 4 -49 160 -59 173 -17 22 -212
132 -313 176 -55 25 -137 57 -183 73 l-83 28 6 80 c13 189 22 505 16 557 -6
53 -10 59 -64 109 l-59 54 6 -80z"/>
<path d="M17387 17792 c-10 -10 -17 -34 -17 -53 -1 -30 -2 -32 -12 -14 -19 36
-51 65 -70 65 -19 0 -52 -28 -60 -50 -3 -10 -8 -10 -26 1 -19 12 -24 11 -38
-3 -53 -53 35 -234 153 -314 32 -21 83 -33 83 -19 0 3 -7 17 -16 30 -24 37
-10 30 49 -23 81 -74 147 -92 147 -42 l0 21 31 -22 c17 -12 43 -22 57 -23 18
-1 43 -18 74 -49 26 -26 57 -47 68 -47 12 0 29 -14 44 -37 13 -21 35 -50 49
-65 27 -29 67 -38 67 -15 0 6 11 -1 23 -18 12 -16 31 -40 43 -51 11 -12 33
-42 48 -68 26 -45 46 -59 46 -33 0 6 10 -3 21 -20 12 -18 25 -33 30 -33 5 0
18 -9 29 -20 38 -38 42 -27 25 83 -7 42 0 32 25 -35 25 -69 58 -125 85 -148
17 -14 18 -13 11 10 -10 32 -75 331 -76 347 0 19 -29 43 -45 37 -11 -4 -15 1
-15 17 0 13 -9 44 -20 68 -17 36 -24 43 -44 39 -19 -4 -25 1 -35 29 -13 34
-53 69 -69 59 -5 -3 -19 17 -32 44 -31 65 -62 94 -93 86 -20 -5 -29 2 -56 44
-29 44 -72 73 -87 58 -2 -3 -27 17 -54 45 -42 42 -54 49 -77 44 -23 -5 -36 2
-70 36 -35 33 -50 41 -78 40 -19 -1 -38 3 -41 8 -9 16 -60 10 -77 -9z"/>
<path d="M7241 17659 c-445 -50 -875 -234 -1207 -516 -28 -23 -56 -43 -61 -43
-6 0 -51 43 -102 95 l-92 95 -35 -26 -34 -26 49 -57 c138 -159 336 -323 518
-430 347 -204 789 -351 1058 -351 l72 0 7 -106 c4 -58 9 -111 12 -118 3 -7
-29 -17 -87 -29 -106 -20 -248 -85 -323 -147 -200 -165 -286 -464 -207 -711
l30 -92 -22 -18 c-29 -24 -171 -99 -189 -99 -7 0 -39 37 -70 83 -119 171 -209
262 -494 500 -191 159 -487 318 -725 390 -320 97 -584 127 -894 103 -169 -14
-396 -53 -500 -88 -39 -13 -40 -15 -45 -66 -3 -28 -3 -52 0 -52 3 0 40 11 83
25 102 33 233 54 385 62 103 5 122 4 122 -8 0 -8 -8 -66 -17 -129 -13 -87 -17
-184 -18 -395 0 -257 2 -295 28 -460 48 -315 105 -517 219 -774 143 -326 301
-570 542 -840 301 -336 714 -620 1136 -781 47 -17 88 -34 93 -37 7 -4 -46 -86
-110 -170 l-24 -32 40 -20 40 -21 34 48 c113 155 304 496 294 525 -2 6 -22 16
-46 23 -41 12 -42 12 -52 -14 -5 -15 -31 -71 -56 -125 -41 -85 -49 -96 -67
-91 -76 23 -267 104 -384 163 -766 391 -1290 1058 -1496 1903 -81 331 -95 717
-40 1073 21 136 36 155 110 148 100 -10 305 -52 414 -84 143 -42 148 -48 126
-156 -41 -196 -39 -541 4 -781 65 -363 244 -748 483 -1041 221 -271 541 -505
879 -643 70 -29 128 -57 128 -63 0 -5 -11 -46 -25 -90 -14 -44 -25 -85 -25
-91 0 -6 20 -15 45 -21 l45 -10 29 91 c62 196 102 420 116 666 19 324 -85 851
-223 1133 l-39 78 26 18 c40 28 112 66 149 79 31 11 33 10 56 -27 55 -86 209
-197 336 -243 57 -20 84 -23 215 -23 173 0 245 17 353 82 65 39 165 133 204
189 l22 32 103 -51 c57 -29 103 -55 103 -58 0 -4 -19 -38 -42 -75 -84 -138
-173 -374 -232 -616 -132 -541 -74 -1122 159 -1603 59 -120 162 -283 243 -385
85 -106 278 -295 386 -377 109 -84 313 -207 403 -244 l57 -23 55 31 c30 17 56
35 58 39 1 5 -30 22 -70 38 -61 24 -202 96 -245 124 -6 4 -37 120 -67 258 -51
226 -82 364 -120 526 l-13 58 98 55 c559 314 987 769 1264 1345 141 294 231
602 278 950 19 145 16 575 -5 730 -10 69 -21 136 -24 149 -6 23 -5 23 48 16
82 -11 314 -70 411 -104 47 -17 89 -31 92 -31 8 0 7 51 0 117 l-7 53 -91 29
c-227 73 -372 99 -611 110 -382 19 -668 -28 -990 -160 -303 -125 -581 -349
-806 -652 -57 -77 -149 -245 -149 -274 0 -19 -22 -12 -144 49 -87 44 -97 52
-92 71 31 108 36 144 37 247 0 208 -65 375 -196 505 -104 103 -273 185 -381
185 -38 0 -45 3 -40 16 3 9 6 65 6 125 l0 109 29 0 c16 0 75 9 132 21 628 124
1129 384 1498 776 55 59 101 112 101 118 -1 5 -17 22 -37 37 l-36 28 -89 -95
c-49 -52 -107 -108 -128 -125 l-39 -31 -103 79 c-298 226 -660 379 -1033 437
-122 19 -449 27 -564 14z m471 -154 c387 -45 725 -178 1032 -406 67 -49 83
-66 74 -76 -6 -7 -69 -52 -140 -99 -215 -144 -496 -273 -734 -339 -121 -33
-368 -79 -494 -91 -117 -12 -577 84 -782 162 -135 51 -304 143 -444 241 -68
47 -128 91 -134 97 -7 9 14 30 78 78 130 98 202 142 362 222 370 184 784 258
1182 211z m-130 -1431 c126 -39 194 -80 278 -164 121 -122 173 -243 174 -405
2 -318 -218 -554 -534 -572 -106 -6 -245 22 -328 67 -65 35 -217 165 -267 228
-43 55 -68 156 -67 277 0 164 67 313 193 429 124 115 219 150 446 165 12 0 59
-11 105 -25z m2680 -77 c45 -35 46 -38 64 -167 61 -446 -4 -969 -173 -1405
-100 -257 -268 -546 -448 -769 -330 -411 -802 -739 -1326 -921 -55 -19 -103
-35 -106 -35 -2 0 -29 52 -59 115 -50 106 -123 307 -139 381 -6 31 -6 31 57
49 249 69 577 249 808 443 418 350 695 851 776 1403 21 149 15 558 -11 689
-10 47 -18 103 -19 125 -1 38 1 40 49 64 81 39 211 60 360 58 126 -2 131 -3
167 -30z m-714 -159 c67 -348 53 -696 -43 -1028 -109 -377 -347 -748 -651
-1014 -81 -71 -232 -181 -239 -175 -4 5 -212 897 -250 1074 -14 66 -33 144
-41 173 -12 42 -13 59 -4 87 6 19 17 35 24 35 19 0 50 38 91 115 97 177 216
323 370 453 116 99 276 207 390 265 87 44 290 125 316 126 12 1 20 -24 37
-111z m-4064 -24 c348 -156 773 -464 1002 -725 43 -50 82 -98 86 -107 206
-505 267 -785 255 -1180 -4 -144 -30 -387 -42 -400 -12 -13 -279 112 -415 194
-258 155 -507 398 -683 664 -251 380 -378 903 -327 1340 19 163 32 250 37 250
3 0 42 -16 87 -36z m2762 -1146 c12 -19 88 -350 204 -883 22 -104 43 -200 46
-212 5 -19 -3 -26 -55 -52 -33 -17 -85 -42 -115 -55 l-54 -24 -17 71 c-10 40
-34 126 -55 192 -21 66 -43 145 -50 175 -7 30 -27 108 -46 173 -42 146 -42
194 -4 330 48 170 99 297 121 297 10 0 21 -5 25 -12z m-191 -1155 l32 -135
-21 -8 c-17 -6 -22 -3 -28 17 -8 29 -28 225 -27 262 1 36 7 17 44 -136z m706
-1118 c28 -121 59 -251 69 -289 11 -38 18 -71 16 -73 -15 -16 -329 288 -384
371 -23 35 -32 61 -32 90 0 40 2 42 58 68 31 15 91 53 132 84 l75 56 8 -44 c5
-23 31 -142 58 -263z"/>
<path d="M7289 15630 c-39 -42 -50 -63 -69 -131 -18 -70 -20 -88 -10 -126 18
-74 71 -147 124 -173 42 -20 52 -21 105 -12 79 14 132 43 174 94 53 66 70 107
71 170 1 48 -4 63 -29 99 -33 47 -108 109 -131 109 -26 0 -14 -23 40 -80 59
-62 72 -91 62 -145 -9 -44 -18 -49 -55 -30 -17 8 -35 15 -41 15 -18 0 -11 -33
12 -57 l22 -24 -29 -24 c-54 -43 -129 -47 -175 -9 -48 41 -70 93 -70 169 0 43
4 65 12 65 6 0 30 -20 52 -43 47 -51 74 -67 111 -67 33 0 40 20 20 60 -19 36
-59 63 -121 80 -50 14 -52 26 -6 55 40 25 43 55 5 55 -19 0 -40 -14 -74 -50z"/>
<path d="M18330 17080 c-15 -29 -6 -75 36 -178 41 -102 83 -169 135 -216 53
-49 66 -45 30 7 -38 55 -96 195 -131 312 -27 94 -48 116 -70 75z"/>
<path d="M3301 16884 c-30 -25 -87 -75 -127 -113 -67 -61 -76 -75 -99 -141
-14 -40 -25 -76 -25 -79 0 -2 42 36 93 85 50 50 113 107 139 128 36 28 51 50
64 89 9 29 19 58 22 65 8 22 -12 12 -67 -34z"/>
<path d="M11535 16894 c5 -11 22 -57 38 -104 28 -82 32 -88 140 -197 61 -62
112 -111 114 -110 1 2 -10 49 -25 106 l-27 103 -105 100 c-112 107 -149 135
-135 102z"/>
<path d="M18505 16879 c-10 -15 61 -227 95 -287 39 -67 53 -67 29 1 -10 28
-34 104 -54 169 -33 107 -54 143 -70 117z"/>
<path d="M17660 16840 c-10 -18 -15 -62 -16 -150 -1 -136 -4 -152 -64 -343
-22 -71 -40 -135 -40 -142 0 -7 -21 -18 -47 -24 -65 -16 -255 -91 -272 -107
-12 -11 -10 -14 13 -20 15 -4 53 -4 84 -1 l57 5 -54 -25 c-38 -17 -51 -27 -43
-35 7 -7 32 -6 84 5 40 8 89 18 108 21 34 6 34 5 -15 -22 -93 -52 -136 -83
-129 -93 8 -14 71 1 279 65 27 8 51 14 52 12 8 -8 -72 -59 -143 -91 -59 -27
-75 -38 -66 -47 12 -12 24 -10 232 38 l25 6 -25 -21 c-14 -11 -58 -35 -97 -53
-72 -31 -95 -58 -50 -58 12 0 58 11 102 25 44 14 81 25 81 25 1 0 4 -9 7 -21
4 -16 -4 -25 -49 -47 -65 -31 -74 -58 -16 -48 20 3 46 9 58 12 16 4 24 -1 33
-24 17 -41 87 -111 127 -128 52 -22 57 -19 50 26 l-6 40 117 0 c65 0 163 6
218 15 217 35 271 44 300 53 19 5 53 4 95 -4 111 -20 203 -27 195 -15 -11 19
-117 68 -236 110 -268 94 -482 171 -591 214 -128 50 -421 195 -416 205 2 4 23
48 48 97 l45 90 -1 200 c-1 110 -6 218 -11 240 l-9 40 -14 -25z"/>
<path d="M18656 16664 c-3 -8 1 -30 10 -47 34 -66 134 -183 144 -168 3 5 40
-24 83 -65 43 -41 84 -74 92 -74 19 0 19 0 -10 53 -29 52 -55 78 -55 56 0 -8
-12 -1 -27 16 -72 84 -106 116 -119 111 -10 -4 -25 17 -49 64 -34 68 -57 86
-69 54z"/>
<path d="M2911 16503 c-115 -128 -321 -425 -321 -462 0 -9 -11 -62 -23 -118
-13 -57 -22 -103 -21 -103 1 0 28 47 58 104 67 125 167 278 264 405 59 77 73
103 86 159 8 36 14 68 12 70 -2 1 -27 -23 -55 -55z"/>
<path d="M11940 16504 c0 -5 11 -55 24 -112 20 -88 29 -110 68 -160 57 -73
154 -217 235 -351 59 -98 64 -103 59 -66 -3 22 -8 69 -12 105 -3 36 -12 80
-20 98 -19 46 -180 280 -269 392 -89 111 -85 106 -85 94z"/>
<path d="M3694 15981 c-120 -51 -279 -142 -385 -220 l-66 -49 -6 -68 c-3 -38
-4 -70 -2 -72 1 -2 53 33 114 77 111 79 242 158 373 222 67 33 68 33 78 86 7
30 10 57 8 62 -2 5 -53 -13 -114 -38z"/>
<path d="M11104 15928 c14 -127 10 -120 94 -163 42 -22 81 -41 85 -43 13 -6
-3 171 -17 185 -6 7 -46 28 -90 48 l-79 36 7 -63z"/>
<path d="M11373 15790 c4 -34 7 -77 7 -94 0 -29 10 -38 107 -106 145 -101 266
-203 364 -308 l81 -87 -7 120 -7 120 -65 60 c-134 122 -319 262 -437 330 l-49
29 6 -64z"/>
<path d="M2388 15630 c-159 -402 -228 -733 -253 -1216 -19 -360 75 -989 198
-1319 26 -70 79 -80 157 -29 46 30 49 48 26 142 -68 272 -64 784 7 1140 23
111 23 115 6 208 -9 52 -19 97 -22 100 -8 8 -52 -137 -92 -300 -42 -178 -56
-322 -56 -578 1 -191 20 -349 56 -463 18 -55 46 -177 42 -181 -1 -1 -15 -4
-31 -6 -33 -3 -24 -26 -95 214 -134 456 -171 992 -102 1468 25 171 98 468 156
639 41 117 46 140 43 204 l-3 72 -37 -95z"/>
<path d="M12494 15530 c5 -110 9 -135 36 -205 85 -217 177 -612 200 -857 6
-62 12 -113 14 -115 1 -2 15 68 30 155 31 183 31 183 -38 462 -46 181 -149
483 -211 611 l-35 74 4 -125z"/>
<path d="M3029 15513 c-47 -48 -90 -97 -96 -108 -5 -11 -7 -46 -4 -78 l6 -59
93 101 93 100 -3 66 -3 67 -86 -89z"/>
<path d="M12014 15271 c3 -35 6 -92 6 -125 0 -57 3 -66 41 -116 94 -125 233
-378 300 -546 38 -96 94 -332 115 -479 29 -214 3 -492 -72 -750 -38 -131 -38
-128 -13 -159 28 -35 76 -56 128 -56 47 0 58 13 125 148 81 163 151 447 176
717 14 151 13 152 -24 45 -18 -52 -45 -124 -59 -160 -14 -36 -42 -123 -61
-195 -47 -177 -154 -447 -175 -443 -20 5 -19 9 28 149 54 159 72 289 72 529 0
428 -96 780 -312 1137 -60 98 -177 258 -238 323 l-42 45 5 -64z"/>
<path d="M2788 15208 c-44 -62 -197 -323 -211 -360 -5 -13 19 -187 27 -196 2
-1 13 26 26 60 42 116 106 252 159 337 51 83 52 85 49 155 l-3 71 -47 -67z"/>
<path d="M15469 15075 c-18 -40 -24 -72 -27 -158 -4 -99 -2 -115 24 -184 44
-123 129 -239 308 -420 88 -89 164 -170 170 -180 6 -10 13 -40 16 -67 6 -56
21 -68 38 -31 32 70 2 163 -82 254 -34 36 -93 102 -131 146 -39 44 -104 117
-146 162 -101 109 -150 202 -157 296 -3 38 1 99 8 137 17 89 8 108 -21 45z"/>
<path d="M24035 14651 c-101 -9 -196 -70 -224 -144 -13 -33 -7 -47 17 -47 26
0 240 77 279 100 69 41 217 20 414 -60 143 -57 223 -112 298 -205 35 -44 70
-94 79 -112 22 -46 34 -42 17 6 -32 91 -124 231 -185 280 -56 45 -233 128
-310 145 -36 8 -90 22 -120 30 -54 16 -133 18 -265 7z"/>
<path d="M15856 14494 c16 -64 66 -122 164 -189 30 -21 67 -47 82 -58 51 -38
39 -10 -36 84 -68 85 -159 169 -201 185 -13 5 -15 2 -9 -22z"/>
<path d="M16661 14463 c-6 -27 -18 -87 -26 -135 -8 -48 -28 -120 -44 -160 -32
-82 -47 -94 -162 -123 -69 -18 -99 -38 -99 -65 0 -34 26 -43 97 -35 84 8 141
34 187 85 66 74 79 111 84 247 5 127 -3 233 -18 233 -4 0 -13 -21 -19 -47z"/>
<path d="M23763 14435 c-11 -8 -28 -32 -36 -53 -28 -71 -69 -255 -64 -288 8
-48 81 -194 119 -238 24 -27 40 -38 51 -33 15 5 13 13 -15 57 -19 30 -35 73
-39 103 -10 72 -10 243 1 362 5 55 7 101 6 102 -1 1 -12 -4 -23 -12z"/>
<path d="M23317 13705 c-30 -8 -69 -31 -103 -60 -87 -75 -129 -152 -145 -265
-13 -89 -56 -178 -106 -218 -22 -17 -74 -50 -116 -72 -91 -49 -117 -78 -117
-130 0 -47 24 -78 90 -114 47 -25 61 -28 166 -30 98 -2 114 0 112 13 -2 10
-36 25 -93 41 -102 30 -141 48 -169 79 -31 34 -7 61 113 132 134 79 143 87
193 179 22 41 60 95 83 120 23 25 56 69 75 98 33 54 134 152 157 152 6 0 38
-7 70 -15 31 -8 66 -15 77 -15 35 0 -21 49 -99 86 -75 37 -111 40 -188 19z"/>
<path d="M15548 13363 c-74 -75 -100 -180 -75 -298 38 -177 87 -248 212 -305
111 -52 117 -60 99 -135 -24 -102 -15 -174 14 -111 8 19 18 24 45 24 19 0 43
5 53 10 16 8 35 -4 119 -80 80 -71 122 -100 208 -143 l107 -53 -46 -41 c-42
-37 -44 -41 -23 -41 13 0 47 11 74 24 l50 23 43 -34 c24 -20 45 -33 48 -30 3
3 -8 31 -24 63 -31 61 -73 99 -182 165 -162 97 -271 192 -375 324 -22 28 -62
75 -90 106 -27 31 -66 74 -85 97 -19 22 -38 38 -42 36 -4 -3 -17 14 -28 36
-12 23 -29 44 -38 47 -9 3 -25 15 -34 27 -20 24 -23 11 -8 -30 20 -51 2 -35
-29 27 -46 92 -39 148 32 253 26 37 35 76 19 76 -4 0 -24 -17 -44 -37z"/>
<path d="M24777 13129 c-19 -30 -57 -94 -85 -144 -63 -111 -173 -241 -249
-295 -32 -22 -78 -56 -103 -75 -25 -19 -98 -62 -162 -97 -87 -46 -118 -68
-118 -82 0 -17 6 -18 79 -14 69 4 92 11 174 50 207 100 378 321 478 615 16 47
27 88 25 91 -3 2 -20 -20 -39 -49z"/>
<path d="M11970 12379 c-19 -12 -60 -43 -90 -68 -143 -122 -366 -276 -538
-371 -147 -82 -289 -143 -451 -196 l-134 -44 -74 -76 -74 -76 36 6 c147 28
404 120 600 215 259 125 452 260 642 447 63 63 119 111 124 108 5 -3 13 -13
19 -23 30 -58 -330 -402 -647 -618 -313 -214 -649 -368 -1009 -464 -131 -34
-143 -39 -194 -80 -19 -15 -93 -64 -164 -108 -147 -92 -146 -93 48 -61 172 29
376 88 572 166 199 79 324 139 494 242 330 198 504 326 670 492 104 103 287
317 321 374 l21 36 -31 48 c-29 45 -64 72 -94 72 -7 0 -28 -10 -47 -21z"/>
<path d="M2840 12364 c-72 -40 -72 -47 8 -170 39 -60 88 -131 109 -158 21 -27
52 -68 69 -90 64 -84 272 -273 399 -363 215 -153 410 -248 710 -348 276 -92
611 -166 816 -180 l84 -6 -80 44 c-44 25 -100 60 -124 78 -36 26 -64 36 -143
50 -439 81 -881 268 -1242 527 -69 50 -290 240 -397 342 -42 41 -169 185 -169
193 0 2 7 7 15 11 10 3 29 -9 53 -37 52 -59 181 -181 255 -240 234 -189 608
-373 902 -443 111 -27 267 -55 273 -49 2 2 -36 29 -85 60 -71 47 -113 65 -217
97 -401 121 -679 285 -1025 606 -124 114 -134 118 -211 76z"/>
<path d="M6171 12229 l-94 -99 36 -15 c20 -8 40 -15 45 -15 11 0 202 189 202
200 0 7 -71 31 -86 29 -5 -1 -51 -46 -103 -100z"/>
<path d="M15699 12203 c-14 -38 -3 -118 25 -179 49 -103 136 -176 349 -294
l122 -67 67 -134 c86 -172 114 -268 127 -445 6 -77 15 -199 21 -271 11 -151
27 -202 136 -432 149 -313 305 -473 566 -579 252 -102 633 -167 1138 -193 222
-11 263 -11 838 18 619 31 777 2 1061 -194 114 -77 115 -79 163 -168 27 -49
56 -97 65 -105 14 -14 15 -10 10 37 -12 107 -98 224 -260 355 -190 152 -304
187 -636 195 -156 4 -278 0 -455 -13 -293 -23 -915 -26 -1126 -6 -417 39 -746
126 -917 243 -69 47 -188 164 -238 234 -59 83 -120 208 -160 329 -43 129 -56
191 -95 456 -40 277 -67 434 -85 490 -7 25 -18 63 -24 86 -27 102 -167 226
-367 325 -204 101 -241 137 -274 268 -18 72 -35 87 -51 44z"/>
<path d="M5935 12014 c-47 -39 -252 -168 -332 -208 -40 -20 -73 -38 -73 -41 0
-2 14 -12 31 -20 38 -20 58 -14 189 59 102 57 300 192 300 205 0 6 -68 32 -81
31 -2 -1 -17 -12 -34 -26z"/>
<path d="M7380 11826 c-8 -8 -94 -67 -190 -131 -190 -127 -388 -230 -575 -299
l-119 -44 39 -10 c141 -37 159 -38 232 -7 139 59 402 199 526 282 71 46 134
82 140 79 7 -2 66 -48 132 -101 l120 -96 98 6 c54 3 105 9 113 12 9 3 -26 33
-103 85 -65 43 -170 115 -233 158 -117 81 -152 94 -180 66z"/>
<path d="M5270 11685 c-63 -18 -145 -39 -183 -46 l-67 -12 47 -34 c40 -29 54
-33 83 -28 54 10 167 44 254 77 l80 31 -45 23 c-24 13 -46 23 -49 22 -3 0 -57
-15 -120 -33z"/>
<path d="M9428 11666 c-32 -17 -58 -34 -58 -38 0 -10 131 -47 258 -73 126 -27
117 -28 211 34 l53 35 -103 17 c-57 9 -142 26 -188 38 -47 11 -92 20 -100 20
-9 -1 -42 -16 -73 -33z"/>
<path d="M10465 11644 c-38 -8 -142 -17 -230 -20 l-160 -6 -80 -52 -79 -51 59
-6 c84 -9 245 -9 342 0 87 8 104 17 223 120 41 35 35 36 -75 15z"/>
<path d="M4447 11567 c21 -21 50 -45 65 -53 35 -18 194 -18 353 1 66 8 125 15
130 15 6 0 -18 16 -51 35 l-62 35 -236 3 -237 3 38 -39z"/>
<path d="M7935 11439 c-27 -5 -65 -12 -84 -15 l-34 -5 49 -33 c27 -18 72 -45
99 -59 l50 -26 123 17 c67 9 122 19 122 23 0 12 -225 109 -250 108 -14 -1 -47
-5 -75 -10z"/>
<path d="M6170 11265 c-52 -13 -132 -29 -177 -36 -46 -7 -83 -16 -83 -20 0 -7
235 -69 261 -69 22 0 342 90 352 99 7 7 -216 52 -245 50 -7 -1 -56 -12 -108
-24z"/>
<path d="M8389 11286 c-2 -3 -49 -15 -104 -27 -55 -12 -103 -25 -108 -29 -10
-8 169 -83 327 -136 72 -24 133 -49 137 -55 4 -6 10 -35 13 -63 4 -28 104
-530 222 -1116 237 -1171 603 -3000 709 -3540 37 -189 78 -381 90 -427 l22
-82 -56 -6 c-123 -14 -225 -62 -353 -164 -54 -44 -75 -69 -107 -131 -47 -90
-74 -206 -70 -305 1 -38 2 -92 1 -120 -1 -27 13 -106 30 -175 l30 -124 -23
-16 c-79 -50 -167 -159 -214 -263 -67 -148 -110 -448 -85 -602 16 -98 44 -200
64 -230 14 -21 12 -25 -40 -76 -63 -62 -133 -194 -159 -299 -9 -36 -27 -95
-40 -131 -54 -152 -68 -292 -39 -409 11 -45 16 -112 16 -220 0 -145 2 -161 30
-250 36 -113 81 -202 119 -234 l28 -24 -10 -143 c-5 -79 -16 -173 -25 -209
-19 -84 -33 -197 -33 -286 -1 -132 62 -265 188 -397 104 -108 200 -176 361
-257 128 -64 325 -140 364 -140 27 0 198 -88 291 -150 89 -60 294 -178 457
-263 104 -55 155 -74 275 -106 81 -22 174 -45 206 -51 31 -6 57 -16 57 -21 0
-5 36 -9 80 -9 47 0 80 4 80 10 0 24 -142 736 -230 1155 -76 359 -86 420 -100
570 -21 224 -97 664 -142 820 -7 22 -11 76 -9 120 2 72 -1 86 -27 138 -16 32
-25 60 -21 63 5 2 24 35 44 72 35 67 128 182 138 172 3 -3 22 -84 41 -180 19
-96 46 -222 60 -280 50 -203 267 -1198 496 -2270 27 -124 57 -261 67 -305 l18
-80 43 -3 c40 -3 42 -2 37 20 -20 89 -166 743 -266 1193 -65 297 -148 668
-184 825 -68 301 -95 425 -95 442 0 6 19 -18 42 -53 84 -125 255 -262 448
-359 121 -61 160 -75 160 -56 0 18 -52 64 -181 159 -195 143 -327 291 -393
440 l-25 57 47 -40 c219 -186 402 -323 402 -303 0 5 -66 73 -146 153 -212 210
-313 351 -403 560 -22 50 -52 112 -65 137 -23 40 -24 47 -12 71 39 76 67 198
69 298 l2 101 60 -56 c72 -67 304 -198 415 -235 162 -53 297 -78 458 -83 l152
-5 0 22 c0 21 -3 22 -54 16 -67 -9 -201 14 -360 60 -160 47 -178 56 -255 118
-36 29 -91 71 -121 93 -47 35 -388 373 -534 530 l-48 52 23 58 c44 114 35 374
-17 474 -24 48 -103 108 -163 125 -109 30 -118 34 -131 62 -7 15 -15 63 -18
107 -6 120 18 182 104 262 73 69 106 81 172 64 49 -14 85 -55 226 -256 54 -77
124 -167 155 -201 31 -33 69 -80 85 -103 36 -53 146 -136 251 -188 195 -98
505 -198 730 -236 50 -9 106 -22 125 -29 67 -25 253 -143 317 -202 136 -124
288 -363 398 -626 15 -36 58 -134 96 -217 38 -84 86 -199 108 -255 77 -205
251 -607 306 -709 31 -57 82 -137 113 -178 31 -41 56 -81 57 -90 0 -18 53
-117 233 -434 57 -100 133 -236 169 -302 69 -127 304 -532 333 -575 29 -41
313 -528 364 -622 l47 -88 65 0 64 0 -78 118 c-123 183 -405 647 -582 957 -34
61 -97 164 -140 230 -42 66 -134 217 -204 335 -218 367 -229 385 -243 395 -8
6 -23 45 -34 88 -19 75 -67 195 -144 362 -20 44 -74 166 -120 270 -193 442
-451 973 -543 1115 -118 182 -278 347 -396 406 -38 18 -81 34 -97 34 -15 0
-70 11 -121 25 -51 14 -104 25 -117 25 -13 0 -58 13 -100 29 -42 17 -123 45
-181 63 -145 45 -371 160 -520 264 -69 47 -134 91 -145 96 -11 5 -37 39 -58
76 -45 79 -154 228 -252 342 -91 107 -142 134 -235 124 -74 -7 -125 -25 -157
-56 -13 -12 -24 -20 -26 -17 -2 2 -13 60 -26 129 -12 69 -51 262 -87 430 -35
168 -77 368 -94 445 -16 77 -59 280 -95 450 -35 171 -68 320 -71 332 -8 29
-42 40 -62 19 -15 -15 -13 -34 26 -228 23 -117 55 -276 72 -353 31 -150 167
-840 194 -990 10 -49 31 -140 47 -202 l31 -112 -21 -56 c-27 -73 -26 -124 4
-213 14 -41 25 -76 25 -79 0 -3 -21 -3 -47 1 -27 3 -82 10 -123 16 -41 5 -96
15 -122 21 l-46 11 18 31 c42 71 100 298 100 392 0 17 -13 81 -29 143 -24 94
-35 119 -69 159 -66 78 -125 131 -163 147 -36 15 -36 16 -42 88 -6 83 -73 431
-147 773 -117 538 -132 610 -449 2170 -65 325 -138 680 -161 790 -22 110 -92
456 -155 768 -63 313 -120 586 -126 608 -7 22 -10 41 -7 44 2 3 27 -1 54 -9
27 -8 104 -24 170 -36 l121 -22 42 -162 c43 -167 102 -437 191 -876 28 -140
65 -313 81 -385 38 -164 157 -725 203 -956 19 -96 58 -276 86 -400 28 -123 71
-320 96 -437 40 -191 85 -395 116 -522 14 -57 37 -95 49 -83 25 25 6 162 -65
473 -44 198 -100 474 -176 871 -33 173 -116 585 -185 915 -258 1229 -321 1541
-312 1551 2 1 43 -2 92 -7 50 -5 135 -10 190 -10 l100 0 80 46 c44 25 133 73
198 106 64 34 115 63 113 65 -2 2 -39 -1 -82 -6 -454 -62 -1060 -5 -1427 133
-69 27 -80 29 -88 22z m1354 -5572 c44 -23 132 -89 178 -135 22 -22 43 -39 49
-39 5 0 17 -15 27 -32 15 -28 17 -55 15 -168 -3 -167 -26 -261 -78 -311 l-33
-32 -37 18 c-28 13 -53 16 -101 12 -71 -5 -110 -26 -119 -61 -8 -32 -22 -37
-126 -43 -96 -6 -121 -20 -100 -53 10 -16 5 -19 -56 -30 -37 -7 -84 -19 -106
-26 -21 -8 -39 -14 -40 -14 -2 0 -8 51 -15 113 -7 61 -20 131 -28 155 -13 34
-15 67 -9 166 7 135 27 213 73 279 33 48 155 146 218 177 78 38 235 51 288 24z
m423 -928 c61 -8 127 -21 147 -29 19 -9 68 -20 108 -26 96 -15 119 -28 148
-80 29 -52 55 -182 53 -263 -2 -104 -76 -256 -174 -358 -46 -49 -137 -90 -196
-90 -17 0 -57 -10 -88 -21 -56 -21 -60 -21 -128 -6 -131 31 -292 50 -314 38
-12 -6 -59 -11 -105 -11 -94 0 -227 -29 -267 -59 -28 -20 -37 -55 -20 -75 8
-11 -4 -17 -61 -30 -40 -9 -110 -32 -156 -52 -46 -20 -85 -35 -87 -33 -1 2
-15 47 -31 99 -28 91 -29 103 -29 305 -1 172 2 222 17 275 40 145 103 237 198
285 26 14 100 40 165 59 95 27 143 35 239 40 81 3 151 13 215 30 107 28 173
28 366 2z m-32 -938 c34 -7 62 -13 64 -14 2 -1 -4 -14 -13 -28 -9 -14 -14 -30
-10 -36 12 -20 118 1 201 41 80 38 83 38 175 34 124 -6 185 -25 242 -75 57
-51 79 -112 81 -224 1 -153 -28 -238 -111 -318 -117 -115 -325 -195 -571 -219
-93 -10 -156 -23 -333 -70 -20 -5 -42 -16 -49 -24 -7 -8 -18 -15 -25 -15 -47
0 -437 -138 -487 -172 -45 -31 -26 -48 51 -49 l66 0 -25 -19 c-14 -10 -64 -47
-111 -82 -128 -93 -186 -141 -198 -163 -6 -11 -23 -35 -36 -54 -27 -36 -33
-81 -12 -81 6 0 46 38 87 83 121 135 355 274 590 352 46 16 160 66 252 112
l167 85 128 1 c117 2 131 0 164 -21 21 -12 44 -19 53 -16 25 10 62 -20 86 -72
21 -42 22 -55 16 -144 -3 -53 -13 -116 -21 -140 -23 -65 -88 -156 -146 -203
-28 -23 -73 -61 -100 -84 -27 -24 -69 -52 -92 -64 -49 -25 -164 -108 -192
-139 -43 -47 -172 -111 -420 -209 -110 -43 -180 -85 -180 -107 0 -27 35 -29
119 -9 84 21 258 103 298 142 15 15 28 24 28 21 0 -9 -115 -279 -135 -317 -8
-17 -11 -31 -6 -31 23 0 88 95 146 215 93 190 118 221 210 249 19 6 20 2 18
-137 -2 -78 -8 -173 -14 -212 -14 -91 -77 -270 -145 -414 -30 -62 -54 -120
-54 -127 0 -8 9 -14 19 -14 14 0 39 32 87 107 98 156 137 247 187 438 50 186
70 325 57 395 -10 55 4 73 93 120 34 18 87 57 118 87 l57 55 12 -73 c7 -41 43
-225 81 -408 38 -184 78 -387 89 -450 29 -173 249 -1251 266 -1303 3 -12 -10
-8 -58 17 -35 19 -108 50 -162 69 -190 69 -385 171 -666 349 -103 65 -151 91
-374 197 -136 64 -187 85 -267 105 -79 21 -239 101 -309 155 -30 24 -92 79
-138 124 -82 81 -83 81 -119 191 -44 133 -48 210 -16 365 12 63 23 170 28 268
3 90 13 187 20 215 7 29 11 55 9 59 -11 17 -26 6 -42 -30 -20 -45 -42 -44 -42
0 0 17 -19 101 -41 187 -61 230 -61 231 -54 296 3 33 10 164 15 290 10 250 22
319 80 457 17 40 54 102 81 137 46 57 62 68 153 111 55 27 209 85 342 129
l240 81 145 0 c113 0 158 4 209 19 80 24 72 23 144 9z"/>
<path d="M9673 5593 c-53 -58 -112 -214 -134 -356 -12 -80 -15 -87 -34 -81
-11 3 -29 15 -40 25 -18 18 -20 33 -20 169 0 83 -1 150 -3 150 -2 0 -13 -21
-24 -47 -31 -69 -32 -242 -2 -293 18 -32 84 -80 109 -80 18 0 35 16 40 36 2
10 13 69 25 129 15 76 38 149 76 236 30 69 54 129 54 133 0 14 -23 4 -47 -21z"/>
<path d="M9910 4429 c-15 -53 -4 -160 22 -221 22 -51 71 -101 129 -132 30 -16
48 -18 121 -12 84 7 86 8 125 49 48 50 92 154 100 236 3 31 2 53 -2 49 -5 -4
-22 -48 -39 -96 -52 -149 -101 -188 -230 -183 -84 3 -104 15 -140 81 -17 32
-56 197 -56 239 0 44 -17 38 -30 -10z"/>
<path d="M10647 3628 c-18 -177 -27 -217 -56 -264 -17 -28 -26 -32 -78 -38
-32 -4 -75 -12 -96 -17 -43 -11 -130 7 -197 41 -32 16 -47 34 -72 85 -36 72
-54 84 -43 29 33 -176 171 -274 330 -234 172 44 187 59 235 242 27 104 28 318
1 318 -4 0 -15 -73 -24 -162z"/>
<path d="M8795 3128 c14 -89 117 -269 141 -245 9 9 -14 73 -62 169 -24 48 -44
94 -44 103 0 9 -9 15 -21 15 -19 0 -20 -4 -14 -42z"/>
<path d="M10444 2811 c6 -8 -51 -183 -67 -208 -4 -7 -65 -31 -136 -53 -141
-44 -168 -59 -158 -84 18 -45 211 16 302 96 48 41 63 73 75 157 10 70 6 101
-12 101 -5 0 -7 -4 -4 -9z"/>
<path d="M9949 2683 c-11 -30 -4 -114 12 -144 14 -27 39 -49 55 -49 12 0 9 11
-12 50 -23 43 -26 57 -21 110 4 48 2 60 -9 60 -8 0 -19 -12 -25 -27z"/>
<path d="M5310 11170 l-234 -5 118 -64 118 -64 171 6 c150 6 294 20 432 43 39
6 36 8 -94 50 -114 37 -146 44 -205 42 -39 -1 -177 -5 -306 -8z"/>
<path d="M20386 9081 c-6 -9 7 -92 20 -124 10 -28 29 -14 32 24 7 66 -30 136
-52 100z"/>
<path d="M20435 8710 c-3 -5 -5 -101 -4 -212 0 -112 -4 -259 -11 -328 -13
-144 -12 -142 -135 -207 -75 -39 -266 -166 -485 -324 -161 -115 -333 -204
-550 -282 -305 -111 -497 -179 -625 -223 -165 -56 -390 -167 -477 -236 -180
-142 -319 -258 -378 -313 -36 -34 -114 -104 -175 -157 -60 -53 -126 -113 -145
-133 -19 -20 -68 -64 -109 -98 -151 -124 -346 -413 -574 -847 -157 -301 -233
-545 -272 -880 -24 -212 -45 -566 -45 -774 0 -345 -22 -532 -84 -732 -50 -158
-70 -237 -115 -439 -22 -99 -58 -253 -80 -341 -57 -231 -73 -385 -106 -1009
-9 -159 -20 -355 -25 -435 -5 -80 -12 -228 -15 -330 -3 -102 -8 -236 -11 -297
l-5 -113 51 0 50 0 0 38 c1 35 5 106 30 507 6 94 17 235 25 315 8 80 19 213
25 295 6 83 20 209 30 280 10 72 35 256 55 410 69 536 88 641 170 920 54 182
111 414 135 551 15 85 30 127 98 270 44 93 87 186 95 206 20 48 257 493 330
619 31 53 101 188 158 300 56 112 158 310 227 439 123 230 239 464 300 605 16
39 46 107 66 153 19 45 32 82 27 82 -9 0 -264 -370 -361 -523 -169 -269 -456
-782 -614 -1097 -162 -324 -221 -463 -280 -655 l-24 -80 -1 93 c-1 52 -17 207
-37 345 -46 321 -44 361 21 553 144 425 301 733 619 1210 78 116 161 244 185
283 75 120 416 432 631 578 107 73 578 319 675 353 28 10 122 46 210 80 88 34
189 72 225 85 36 13 112 44 170 69 l105 46 -132 -133 c-72 -72 -152 -164 -177
-204 -26 -39 -71 -99 -102 -133 -58 -65 -93 -116 -164 -240 -24 -41 -63 -109
-86 -150 -24 -41 -51 -97 -60 -125 -9 -27 -44 -113 -77 -190 -72 -168 -81
-199 -106 -346 -11 -63 -31 -179 -46 -259 -14 -79 -25 -176 -24 -215 l1 -70
14 45 c8 25 30 122 50 215 19 94 51 215 71 270 19 55 57 165 83 245 58 177
218 499 349 705 234 367 592 684 1176 1043 55 33 129 84 164 113 l64 51 -7
-58 c-17 -157 -27 -207 -55 -275 -32 -80 -85 -195 -77 -166 8 24 -4 22 -76
-19 -81 -46 -157 -103 -233 -176 -33 -32 -97 -92 -142 -135 -46 -42 -83 -82
-83 -89 0 -28 24 -24 58 9 38 36 160 121 244 170 57 33 160 127 200 181 37 51
35 41 -7 -51 -19 -42 -35 -78 -35 -80 0 -17 49 30 97 95 76 101 144 233 179
352 l28 95 0 430 c0 438 -4 485 -38 485 -8 0 -17 -4 -21 -10z"/>
<path d="M24400 7070 c-52 -28 -135 -80 -185 -116 -139 -101 -458 -311 -538
-354 -40 -21 -117 -50 -172 -65 -120 -32 -168 -49 -300 -108 -55 -24 -173 -72
-261 -105 -89 -33 -185 -72 -212 -86 -97 -49 -368 -234 -632 -429 -159 -119
-301 -216 -355 -244 -49 -25 -132 -70 -182 -100 -51 -30 -159 -83 -240 -119
-82 -36 -202 -94 -268 -129 -166 -88 -435 -204 -590 -255 -71 -23 -186 -69
-255 -100 -107 -50 -392 -161 -511 -199 -20 -7 -44 -20 -53 -30 -15 -17 -15
-19 -1 -31 14 -11 25 -10 68 9 29 13 88 35 132 51 44 15 114 41 156 58 41 17
124 45 184 62 233 68 562 193 770 292 116 55 262 124 325 154 63 29 149 71
190 94 41 23 123 63 181 89 58 26 125 61 150 78 24 17 87 56 139 88 129 77
215 143 340 259 303 282 410 338 881 460 201 52 290 88 439 176 74 44 184 108
244 142 59 35 146 91 192 125 46 34 138 99 204 144 121 82 280 213 280 230 0
17 -25 8 -120 -41z"/>
<path d="M23410 5563 c0 -16 -22 -103 -48 -194 -35 -118 -62 -188 -97 -249
-72 -128 -76 -136 -69 -153 9 -25 40 -30 71 -12 96 54 149 101 178 160 29 59
30 63 29 210 0 124 -4 159 -20 204 -23 62 -44 78 -44 34z"/>
<path d="M18425 5193 c15 -79 126 -265 210 -348 56 -56 192 -151 282 -194 109
-54 330 -88 507 -77 203 12 245 29 99 40 -98 7 -291 38 -398 62 -140 33 -323
137 -440 251 -86 84 -204 222 -226 266 -25 49 -43 49 -34 0z"/>
<path d="M10675 5087 c-7 -123 -7 -124 24 -198 43 -102 68 -141 153 -235 110
-122 154 -147 191 -106 24 26 21 32 -15 32 -37 0 -87 47 -201 190 -92 115
-108 146 -101 206 6 62 -17 226 -32 231 -8 3 -14 -34 -19 -120z"/>
<path d="M23068 4873 c-107 -116 -293 -529 -457 -1013 -24 -69 -60 -175 -82
-236 -43 -125 -70 -259 -94 -474 -8 -80 -24 -203 -35 -275 -42 -289 -45 -411
-12 -529 9 -34 32 -52 56 -43 13 5 16 22 16 86 0 44 7 131 16 193 15 110 23
151 105 543 77 363 88 421 98 522 23 217 99 455 281 878 92 214 153 375 141
375 -4 0 -19 -12 -33 -27z"/>
<path d="M28703 3235 c3 -19 31 -102 62 -182 64 -166 209 -582 261 -748 19
-60 48 -175 65 -255 17 -80 59 -258 94 -396 65 -255 67 -269 100 -639 8 -93
24 -255 35 -360 11 -104 19 -201 19 -215 0 -14 -20 51 -45 144 -43 164 -91
300 -141 399 -13 27 -59 135 -103 240 -113 276 -219 493 -220 451 0 -20 60
-275 80 -338 10 -34 55 -166 99 -294 45 -129 95 -288 112 -355 70 -277 140
-528 169 -605 l32 -82 94 0 94 0 0 78 c0 283 -73 1018 -130 1297 -25 125 -139
553 -197 735 -75 239 -359 960 -431 1092 -40 75 -58 87 -49 33z"/>
<path d="M23255 3000 c-146 -288 -282 -939 -325 -1560 -6 -85 -20 -215 -30
-288 -11 -73 -20 -170 -20 -215 0 -94 -10 -92 -35 8 -30 114 -37 110 -55 -35
-26 -216 3 -425 102 -720 l63 -190 99 0 99 0 -6 90 c-4 50 -16 134 -26 188
-111 558 -121 961 -40 1577 35 263 149 946 178 1070 16 66 28 122 26 123 -2 2
-15 -19 -30 -48z"/>
<path d="M22397 2226 c-18 -45 -29 -333 -24 -571 7 -303 21 -431 82 -765 54
-296 114 -517 198 -728 l63 -157 63 -3 c56 -3 62 -1 57 15 -3 10 -23 77 -45
149 -22 72 -45 144 -51 159 -23 60 -231 897 -249 1005 -18 102 -30 224 -72
770 -6 74 -12 136 -13 138 -2 1 -6 -4 -9 -12z"/>
<path d="M28570 2179 c0 -51 131 -328 175 -369 37 -35 52 -16 35 44 -30 109
-210 387 -210 325z"/>
<path d="M11695 1979 c-27 -42 198 -147 450 -211 115 -29 275 -49 275 -34 0
13 -103 53 -235 91 -151 44 -317 102 -395 139 -59 28 -85 32 -95 15z"/>
<path d="M12375 412 c-33 -26 -138 -112 -233 -192 -96 -80 -196 -162 -224
-183 l-51 -37 97 0 98 0 77 64 c159 133 276 275 306 374 9 31 -1 27 -70 -26z"/>
</g>
</svg>
